<?xml version="1.0" encoding="utf-8"?>
<!-- Generator: Adobe Illustrator 23.0.1, SVG Export Plug-In . SVG Version: 6.00 Build 0)  -->
<svg version="1.1" xmlns="http://www.w3.org/2000/svg" xmlns:xlink="http://www.w3.org/1999/xlink" x="0px" y="0px"
	 viewBox="0 0 496 280" style="enable-background:new 0 0 496 280;" xml:space="preserve">
<style type="text/css">
	.st0{fill:#FF7200;}
	.st1{fill:#BFBFBF;}
	.st2{fill:#404040;}
</style>
<g id="Layer_1">
</g>
<g id="Layer_2">
	<path class="st0" d="M496,174.4l-8.7-3.5c-10.1,11.6-22.1,21.6-35.9,29.3l9.6,51.1l-49.8,14.6l-19.5-48.2
		c-15.8,0.9-31.3-1-46.1-5.3l-30.1,42.9l-41.4-22.6l19.8-48.6c-11.6-10.1-21.6-22.1-29.3-35.9l-51.1,9.6L199,108.2l48.2-19.5
		c-0.9-15.8,1-31.3,5.3-46.1l-42.9-30.1L216.3,0h122.6c-37,20.6-56.2,64.7-43.8,107c14.4,49.1,65.9,77.2,114.9,62.8
		c49.1-14.4,77.2-65.9,62.8-114.9C465.7,30.5,449.5,11.4,429,0h67V174.4z M332.3,61.1c0,6.1,12.4,11.1,27.8,11.1
		c15.3,0,27.8-5,27.8-11.1S375.5,50,360.1,50C344.8,50,332.3,54.9,332.3,61.1z M332.3,99.2c0,6.1,12.4,11.1,27.8,11.1
		c15.3,0,27.8-5,27.8-11.1c0-6.1-12.4-11.1-27.8-11.1C344.8,88.1,332.3,93.1,332.3,99.2z M392.5,20.7c-0.7,3.6,1.3,7,4.7,8.4
		c20.6,8.1,35.2,28.2,35.2,51.6s-14.6,43.5-35.2,51.6c-3.4,1.3-5.4,4.8-4.7,8.4l0,0c0.9,4.6,5.7,7.1,10.1,5.4
		c26.1-10.3,44.6-35.7,44.6-65.4s-18.5-55.1-44.6-65.4C398.2,13.6,393.4,16.1,392.5,20.7L392.5,20.7z"/>
	<g>
		<g>
			<path class="st1" d="M57.8,26.4c-1.3,0-2.5,0.1-3.4,0.3v12.9c0.7,0.1,1.6,0.2,2.8,0.2c2.3,0,4.1-0.5,5.3-1.6c1-0.9,2-2.5,2-5.3
				c0-2.4-0.7-4-2-5C61.5,26.8,60,26.4,57.8,26.4z M57.9,37.7c-0.3,0-0.7,0-1-0.1v-9.2c0.3,0,0.7-0.1,1.2-0.1c2.3,0,3.8,1.5,3.8,4.4
				C61.9,36.2,60.3,37.7,57.9,37.7z"/>
			<path class="st1" d="M70.2,29.9c-2.8,0-4.3,2.4-4.3,5.1c0,2.9,1.7,4.8,4.6,4.8c1.2,0,2.3-0.2,3.1-0.5l-0.4-1.7
				c-0.6,0.2-1.4,0.4-2.3,0.4c-1.4,0-2.5-0.6-2.6-2.3h5.7c0.1-0.3,0.1-0.6,0.1-1C74,31.5,72.5,29.9,70.2,29.9z M68.2,33.8
				c0.1-0.9,0.6-2.2,1.8-2.2c1.2,0,1.6,1.2,1.6,2.2H68.2z"/>
			<path class="st1" d="M81,30.1l-1.2,4.6c-0.2,0.8-0.4,1.6-0.5,2.4h-0.1c-0.2-0.8-0.3-1.6-0.5-2.4l-1.2-4.6h-2.7l3.2,9.5h2.4
				l3.2-9.5H81z"/>
			<path class="st1" d="M31.3,38.7c-0.5,0.6-0.8,1.1-1.1,1.6C30.1,40.4,30,40.8,30,41v0.3c0,0.6,0.5,1.1,1.1,1.1h16.5
				c0.6,0,1.1-0.5,1.1-1.1V28.7C39.6,30.3,34.1,35.2,31.3,38.7z"/>
		</g>
		<g>
			<polygon class="st1" points="87.6,33.8 91.9,33.8 91.9,31.8 87.6,31.8 87.6,28.6 92.1,28.6 92.1,26.5 85.1,26.5 85.1,39.6 
				92.4,39.6 92.4,37.5 87.6,37.5 			"/>
			<path class="st1" d="M101.9,30.1h-2.7l-0.9,1.7c-0.2,0.5-0.5,1-0.7,1.5h0c-0.2-0.5-0.5-1-0.7-1.5L96,30.1h-2.8l2.8,4.7l-2.9,4.8
				h2.7l0.9-1.8c0.2-0.5,0.5-1,0.7-1.5h0c0.2,0.5,0.5,1,0.7,1.5l0.9,1.8h2.8l-2.9-4.9L101.9,30.1z"/>
			<path class="st1" d="M108.3,29.9c-1.2,0-2.2,0.5-2.8,1.5h0l-0.1-1.3h-2.2c0,0.9,0.1,1.9,0.1,3.1v10.2h2.5v-4.7h0
				c0.4,0.6,1.2,1.1,2.2,1.1c1.9,0,3.9-1.5,3.9-5C111.9,31.8,110.4,29.9,108.3,29.9z M107.4,37.8c-0.9,0-1.7-0.7-1.7-2V34
				c0-1.1,0.8-2.1,1.7-2.1c1.2,0,1.9,1.2,1.9,2.9C109.4,36.5,108.7,37.8,107.4,37.8z"/>
			<path class="st1" d="M116,31.7L116,31.7l-0.2-1.7h-2.2c0,0.9,0.1,1.8,0.1,3v6.5h2.5v-4.9c0-1.6,0.9-2.4,2-2.4
				c0.3,0,0.5,0,0.6,0.1v-2.4c-0.2,0-0.3-0.1-0.6-0.1C117.4,29.9,116.4,30.5,116,31.7z"/>
			<path class="st1" d="M124.1,29.9c-2.8,0-4.3,2.4-4.3,5.1c0,2.9,1.7,4.8,4.6,4.8c1.2,0,2.3-0.2,3.1-0.5l-0.4-1.7
				c-0.6,0.2-1.4,0.4-2.3,0.4c-1.4,0-2.5-0.6-2.6-2.3h5.7c0.1-0.3,0.1-0.6,0.1-1C127.9,31.5,126.4,29.9,124.1,29.9z M122.2,33.8
				c0.1-0.9,0.6-2.2,1.8-2.2c1.2,0,1.6,1.2,1.6,2.2H122.2z"/>
			<path class="st1" d="M133.1,33.9c-1.1-0.5-1.4-0.7-1.4-1.3c0-0.5,0.4-0.9,1.2-0.9c0.7,0,1.4,0.3,1.8,0.5l0.5-1.8
				c-0.5-0.3-1.4-0.5-2.3-0.5c-2.1,0-3.5,1.3-3.5,3c0,1,0.6,2,2.4,2.8c1,0.4,1.4,0.7,1.4,1.3c0,0.6-0.4,1-1.3,1
				c-0.8,0-1.7-0.3-2.2-0.6l-0.5,1.8c0.6,0.4,1.6,0.6,2.7,0.6c2.4,0,3.7-1.2,3.7-3C135.5,35.4,134.7,34.5,133.1,33.9z"/>
			<path class="st1" d="M140.7,33.9c-1.1-0.5-1.4-0.7-1.4-1.3c0-0.5,0.4-0.9,1.2-0.9c0.7,0,1.4,0.3,1.8,0.5l0.5-1.8
				c-0.5-0.3-1.4-0.5-2.3-0.5c-2.1,0-3.5,1.3-3.5,3c0,1,0.6,2,2.4,2.8c1,0.4,1.4,0.7,1.4,1.3c0,0.6-0.4,1-1.3,1
				c-0.8,0-1.7-0.3-2.2-0.6l-0.5,1.8c0.6,0.4,1.6,0.6,2.7,0.6c2.4,0,3.7-1.2,3.7-3C143,35.4,142.3,34.5,140.7,33.9z"/>
			<path class="st1" d="M47.6,23.8H31.1c-0.6,0-1.1,0.5-1.1,1.1v9.9c3.3-3.4,9.1-7.2,18-8.2c0.2,0,0.7-0.1,0.7-0.8v-0.9
				C48.7,24.3,48.2,23.8,47.6,23.8z"/>
			<path class="st1" d="M145.5,29.5L145.5,29.5c0.3-0.1,0.4-0.2,0.4-0.5c0-0.2-0.1-0.3-0.2-0.4c-0.1-0.1-0.3-0.1-0.5-0.1h-0.6v1.7
				h0.3v-0.7h0.1c0.1,0,0.2,0.1,0.3,0.3l0.2,0.4h0.4l-0.2-0.5C145.7,29.7,145.6,29.6,145.5,29.5z M145.2,29.4H145v-0.5h0.2
				c0.2,0,0.3,0.1,0.3,0.2c0,0.1,0,0.1-0.1,0.2C145.4,29.3,145.3,29.4,145.2,29.4z"/>
			<path class="st1" d="M146.2,28.5c-0.3-0.3-0.6-0.4-1-0.4c-0.4,0-0.7,0.1-1,0.4c-0.3,0.3-0.4,0.6-0.4,1c0,0.4,0.1,0.7,0.4,1
				c0.3,0.3,0.6,0.4,1,0.4c0.4,0,0.7-0.1,1-0.4c0.3-0.3,0.4-0.6,0.4-1C146.7,29.1,146.5,28.7,146.2,28.5z M146.1,30.3
				c-0.2,0.2-0.5,0.3-0.8,0.3c-0.3,0-0.6-0.1-0.8-0.3s-0.3-0.5-0.3-0.8c0-0.3,0.1-0.6,0.3-0.8c0.2-0.2,0.5-0.3,0.9-0.3
				c0.3,0,0.6,0.1,0.8,0.3c0.2,0.2,0.3,0.5,0.3,0.8C146.4,29.8,146.3,30.1,146.1,30.3z"/>
		</g>
	</g>
	<g>
		<path class="st2" d="M36.9,252l-3.8-17h-0.2c0.2,1.3,0.3,2.5,0.3,3.6V252h-3.4v-20h5.7l3.4,15.7H39l3.4-15.7h5.8v20h-3.5v-13.5
			c0-1.1,0.1-2.3,0.2-3.4h-0.1L41,252H36.9z"/>
		<path class="st2" d="M59,252l-0.7-2.1h-0.1c-0.5,0.9-1.1,1.5-1.7,1.8s-1.3,0.5-2.2,0.5c-1.1,0-2-0.4-2.6-1.3s-1-2-1-3.5
			c0-1.6,0.4-2.8,1.3-3.6c0.9-0.8,2.2-1.2,3.9-1.3l2-0.1v-1.1c0-1.4-0.6-2.1-1.8-2.1c-0.9,0-2,0.4-3.1,1.1l-1.3-2.5
			c1.5-1,3.2-1.4,4.9-1.4c1.6,0,2.8,0.5,3.7,1.4c0.8,0.9,1.3,2.2,1.3,3.9V252H59z M55.8,249.4c0.7,0,1.2-0.3,1.6-0.9
			s0.6-1.4,0.6-2.4v-1.3l-1.1,0.1c-0.8,0-1.4,0.3-1.8,0.7c-0.4,0.4-0.6,1.1-0.6,1.9C54.5,248.8,54.9,249.4,55.8,249.4z"/>
		<path class="st2" d="M64.4,232.8c0-0.6,0.2-1.1,0.5-1.4c0.4-0.4,0.8-0.5,1.5-0.5c0.6,0,1.1,0.2,1.4,0.5s0.5,0.8,0.5,1.4
			c0,0.6-0.2,1.1-0.5,1.4c-0.4,0.3-0.8,0.5-1.4,0.5c-0.6,0-1.1-0.2-1.4-0.5C64.6,233.9,64.4,233.4,64.4,232.8z M68.2,252h-3.6v-15.2
			h3.6V252z"/>
		<path class="st2" d="M78.9,252v-9.1c0-1.1-0.1-1.9-0.4-2.5c-0.3-0.6-0.7-0.8-1.3-0.8c-0.8,0-1.4,0.4-1.7,1.2
			c-0.4,0.8-0.5,2.1-0.5,3.9v7.3h-3.6v-15.2h2.9l0.4,2h0.2c0.3-0.7,0.8-1.3,1.4-1.6c0.6-0.4,1.3-0.6,2.1-0.6c1.4,0,2.4,0.5,3.1,1.4
			c0.7,0.9,1,2.3,1,4.2v9.9H78.9z"/>
		<path class="st2" d="M105.4,241.8c0,3.3-0.7,5.8-2,7.6c-1.3,1.7-3.3,2.6-5.8,2.6h-4.9v-20H98c2.3,0,4.1,0.9,5.4,2.6
			C104.7,236.3,105.4,238.7,105.4,241.8z M101.6,241.9c0-4.5-1.2-6.7-3.7-6.7h-1.5v13.5h1.2c1.4,0,2.4-0.6,3-1.7
			C101.3,245.9,101.6,244.2,101.6,241.9z"/>
		<path class="st2" d="M113.7,252.3c-1.9,0-3.4-0.7-4.5-2c-1.1-1.4-1.6-3.3-1.6-5.7c0-2.5,0.5-4.5,1.5-5.9c1-1.4,2.4-2.1,4.2-2.1
			c1.7,0,3,0.6,3.9,1.8s1.4,2.9,1.4,5.1v1.9h-7.3c0,1.4,0.3,2.4,0.8,3c0.5,0.7,1.3,1,2.2,1c1.2,0,2.4-0.4,3.6-1.1v3
			C116.7,251.9,115.3,252.3,113.7,252.3z M113.2,239.3c-0.5,0-0.9,0.3-1.3,0.8c-0.3,0.6-0.5,1.4-0.6,2.6h3.7c0-1.1-0.2-2-0.5-2.5
			C114.2,239.6,113.7,239.3,113.2,239.3z"/>
		<path class="st2" d="M136.1,252v-9.1c0-2.2-0.6-3.3-1.7-3.3c-0.8,0-1.4,0.4-1.7,1.2c-0.3,0.8-0.5,2.1-0.5,3.8v7.4h-3.7v-9.1
			c0-2.2-0.6-3.3-1.7-3.3c-0.8,0-1.4,0.4-1.7,1.2s-0.5,2.1-0.5,3.9v7.3H121v-15.2h2.9l0.4,2h0.2c0.4-0.8,0.9-1.3,1.5-1.7
			c0.6-0.4,1.3-0.5,2-0.5c1.9,0,3.1,0.9,3.7,2.6h0.1c0.8-1.8,2-2.6,3.7-2.6c1.3,0,2.4,0.5,3.1,1.4s1,2.3,1,4.2v9.9H136.1z"/>
		<path class="st2" d="M154,244.4c0,2.5-0.5,4.4-1.6,5.8c-1.1,1.4-2.5,2.1-4.3,2.1c-1.2,0-2.2-0.3-3.1-1c-0.9-0.6-1.6-1.6-2.1-2.8
			c-0.5-1.2-0.7-2.6-0.7-4.2c0-2.5,0.5-4.4,1.6-5.8c1-1.4,2.5-2.1,4.4-2.1c1.8,0,3.2,0.7,4.3,2.1C153.4,240,154,241.9,154,244.4z
			 M145.9,244.4c0,1.6,0.2,2.8,0.5,3.6c0.3,0.8,0.9,1.2,1.7,1.2c1.5,0,2.2-1.6,2.2-4.8c0-1.6-0.2-2.8-0.5-3.6
			c-0.4-0.8-0.9-1.2-1.7-1.2c-0.8,0-1.3,0.4-1.7,1.2C146.1,241.6,145.9,242.8,145.9,244.4z"/>
	</g>
	<g>
		<path class="st0" d="M35.9,270h-5.8v-12.8h5.8v2.1h-3.4v3.1h3.2v2.1h-3.2v3.6h3.4V270z"/>
		<path class="st0" d="M45.2,270h-2.5l-1.8-4.6l-1.7,4.6h-2.5l2.9-6.7l-2.7-6.2h2.4l1.7,4.2l1.5-4.2H45l-2.7,6.3L45.2,270z"/>
		<path class="st0" d="M53.3,261.1c0,1.4-0.3,2.4-1,3.1c-0.7,0.7-1.7,1.1-3,1.1h-0.6v4.7h-2.4v-12.8h3.3
			C52.1,257.2,53.3,258.5,53.3,261.1z M48.7,263.3h0.5c0.6,0,1-0.2,1.3-0.5s0.4-0.8,0.4-1.6c0-0.7-0.1-1.2-0.4-1.5
			c-0.3-0.3-0.7-0.5-1.2-0.5h-0.6V263.3z"/>
		<path class="st0" d="M57.3,265v5h-2.4v-12.8h3.1c1.3,0,2.3,0.3,2.9,0.9s0.9,1.6,0.9,2.9c0,1.6-0.5,2.8-1.6,3.4l2.5,5.6h-2.6l-2-5
			H57.3z M57.3,262.9h0.6c0.6,0,1-0.2,1.2-0.5c0.2-0.3,0.4-0.8,0.4-1.4c0-0.7-0.1-1.1-0.4-1.4c-0.3-0.3-0.7-0.4-1.2-0.4h-0.6V262.9z
			"/>
		<path class="st0" d="M69.7,270h-5.8v-12.8h5.8v2.1h-3.4v3.1h3.2v2.1h-3.2v3.6h3.4V270z"/>
		<path class="st0" d="M77.5,266.5c0,1.2-0.3,2.1-0.9,2.8s-1.5,1-2.6,1c-1.1,0-2.1-0.2-2.9-0.7v-2.4c1,0.6,1.8,0.9,2.6,0.9
			c0.5,0,0.8-0.1,1-0.4s0.3-0.6,0.3-1c0-0.4-0.1-0.8-0.4-1.2s-0.7-0.7-1.4-1.2c-0.6-0.4-1-0.7-1.3-1.1c-0.3-0.3-0.5-0.7-0.7-1.2
			s-0.2-0.9-0.2-1.5c0-1.1,0.3-2,0.9-2.6s1.4-1,2.5-1c1,0,1.9,0.3,2.8,0.8l-0.8,1.9c-0.3-0.2-0.6-0.3-0.9-0.4s-0.6-0.2-1-0.2
			c-0.4,0-0.7,0.1-0.9,0.4c-0.2,0.3-0.3,0.6-0.3,1c0,0.4,0.1,0.8,0.4,1.1s0.7,0.7,1.3,1.1c0.8,0.6,1.4,1.1,1.8,1.7
			S77.5,265.7,77.5,266.5z"/>
		<path class="st0" d="M84.9,266.5c0,1.2-0.3,2.1-0.9,2.8s-1.5,1-2.6,1c-1.1,0-2.1-0.2-2.9-0.7v-2.4c1,0.6,1.8,0.9,2.6,0.9
			c0.5,0,0.8-0.1,1-0.4s0.3-0.6,0.3-1c0-0.4-0.1-0.8-0.4-1.2s-0.7-0.7-1.4-1.2c-0.6-0.4-1-0.7-1.3-1.1c-0.3-0.3-0.5-0.7-0.7-1.2
			s-0.2-0.9-0.2-1.5c0-1.1,0.3-2,0.9-2.6s1.4-1,2.5-1c1,0,1.9,0.3,2.8,0.8l-0.8,1.9c-0.3-0.2-0.6-0.3-0.9-0.4s-0.6-0.2-1-0.2
			c-0.4,0-0.7,0.1-0.9,0.4c-0.2,0.3-0.3,0.6-0.3,1c0,0.4,0.1,0.8,0.4,1.1s0.7,0.7,1.3,1.1c0.8,0.6,1.4,1.1,1.8,1.7
			S84.9,265.7,84.9,266.5z"/>
		<path class="st0" d="M92.6,270l-0.7-3.2h-3.3l-0.7,3.2h-2.4l3.2-12.9h3.2L95,270H92.6z M91.4,264.6l-0.7-3c0-0.2-0.1-0.6-0.3-1.4
			c-0.1-0.7-0.2-1.2-0.3-1.5c-0.1,0.5-0.2,1.1-0.3,1.7c-0.1,0.6-0.4,2-0.9,4.2H91.4z"/>
		<path class="st0" d="M103.1,261.1c0,1.4-0.3,2.4-1,3.1c-0.7,0.7-1.7,1.1-3,1.1h-0.6v4.7h-2.4v-12.8h3.3
			C101.8,257.2,103.1,258.5,103.1,261.1z M98.5,263.3h0.5c0.6,0,1-0.2,1.3-0.5s0.4-0.8,0.4-1.6c0-0.7-0.1-1.2-0.4-1.5
			c-0.3-0.3-0.7-0.5-1.2-0.5h-0.6V263.3z"/>
		<path class="st0" d="M111.7,261.1c0,1.4-0.3,2.4-1,3.1c-0.7,0.7-1.7,1.1-3,1.1h-0.6v4.7h-2.4v-12.8h3.3
			C110.5,257.2,111.7,258.5,111.7,261.1z M107.1,263.3h0.5c0.6,0,1-0.2,1.3-0.5s0.4-0.8,0.4-1.6c0-0.7-0.1-1.2-0.4-1.5
			c-0.3-0.3-0.7-0.5-1.2-0.5h-0.6V263.3z"/>
		<path class="st0" d="M120.2,270h-2.4v-12.8h5.8v2.1h-3.4v3.6h3.2v2.1h-3.2V270z"/>
		<path class="st0" d="M127.5,265v5h-2.4v-12.8h3.1c1.3,0,2.3,0.3,2.9,0.9s0.9,1.6,0.9,2.9c0,1.6-0.5,2.8-1.6,3.4l2.5,5.6h-2.6l-2-5
			H127.5z M127.5,262.9h0.6c0.6,0,1-0.2,1.2-0.5c0.2-0.3,0.4-0.8,0.4-1.4c0-0.7-0.1-1.1-0.4-1.4c-0.3-0.3-0.7-0.4-1.2-0.4h-0.6
			V262.9z"/>
		<path class="st0" d="M140.2,270l-0.7-3.2h-3.3l-0.7,3.2H133l3.2-12.9h3.2l3.2,12.9H140.2z M139,264.6l-0.7-3
			c0-0.2-0.1-0.6-0.3-1.4c-0.1-0.7-0.2-1.2-0.3-1.5c-0.1,0.5-0.2,1.1-0.3,1.7c-0.1,0.6-0.4,2-0.9,4.2H139z"/>
		<path class="st0" d="M148.3,270l-2.4-10.9h-0.1c0.1,0.8,0.2,1.6,0.2,2.3v8.6h-2.2v-12.8h3.7l2.2,10.1h0.1l2.2-10.1h3.7V270h-2.3
			v-8.7c0-0.7,0-1.5,0.1-2.2h-0.1L151,270H148.3z"/>
		<path class="st0" d="M163.7,270h-5.8v-12.8h5.8v2.1h-3.4v3.1h3.2v2.1h-3.2v3.6h3.4V270z"/>
		<path class="st0" d="M176.2,270h-3l-1.3-6.7c-0.2-0.9-0.3-2-0.4-3.3l-0.1,0.7l-0.4,2.6l-1.2,6.7h-3l-2.3-12.8h2.3l1.2,7.3
			c0.1,0.7,0.3,1.9,0.4,3.4c0.1-1.6,0.3-2.7,0.4-3.4l1.4-7.3h2.5l1.4,7.3c0.2,1.1,0.3,2.2,0.4,3.4c0.2-1.7,0.4-2.9,0.4-3.4l1.1-7.3
			h2.4L176.2,270z"/>
		<path class="st0" d="M188.6,263.6c0,2.1-0.4,3.8-1.2,4.9s-1.9,1.7-3.4,1.7c-1.5,0-2.6-0.6-3.4-1.7s-1.2-2.8-1.2-4.9
			c0-2.1,0.4-3.8,1.2-4.9c0.8-1.1,1.9-1.7,3.4-1.7c1.5,0,2.6,0.6,3.4,1.7S188.6,261.4,188.6,263.6z M181.8,263.6
			c0,1.5,0.2,2.6,0.6,3.3s0.9,1.2,1.6,1.2c1.4,0,2.2-1.5,2.2-4.5s-0.7-4.5-2.1-4.5c-0.7,0-1.3,0.4-1.6,1.1
			C182,261,181.8,262.1,181.8,263.6z"/>
		<path class="st0" d="M192.9,265v5h-2.4v-12.8h3.1c1.3,0,2.3,0.3,2.9,0.9s0.9,1.6,0.9,2.9c0,1.6-0.5,2.8-1.6,3.4l2.5,5.6h-2.6l-2-5
			H192.9z M192.9,262.9h0.6c0.6,0,1-0.2,1.2-0.5c0.2-0.3,0.4-0.8,0.4-1.4c0-0.7-0.1-1.1-0.4-1.4c-0.3-0.3-0.7-0.4-1.2-0.4h-0.6
			V262.9z"/>
		<path class="st0" d="M207.5,270H205l-2.1-5.5l-1,1v4.5h-2.4v-12.8h2.4v6.4l0.8-1.9l2.2-4.4h2.6l-3,5.6L207.5,270z"/>
	</g>
</g>
</svg>
