<?xml version="1.0" encoding="utf-8"?>
<!-- Generator: Adobe Illustrator 21.1.0, SVG Export Plug-In . SVG Version: 6.00 Build 0)  -->
<svg version="1.1" id="Layer_1" xmlns="http://www.w3.org/2000/svg" xmlns:xlink="http://www.w3.org/1999/xlink" x="0px" y="0px"
	 viewBox="0 0 32 32" style="enable-background:new 0 0 32 32;" xml:space="preserve">
<style type="text/css">
	.Red{fill:#D11C1C;}
</style>
<path class="Red" d="M18.8,16l8-8c0.4-0.4,0.4-1,0-1.4l-1.4-1.4c-0.4-0.4-1-0.4-1.4,0l-8,8l-8-8c-0.4-0.4-1-0.4-1.4,0L5.2,6.6
	C4.8,7,4.8,7.6,5.2,8l8,8l-8,8c-0.4,0.4-0.4,1,0,1.4l1.4,1.4c0.4,0.4,1,0.4,1.4,0l8-8l8,8c0.4,0.4,1,0.4,1.4,0l1.4-1.4
	c0.4-0.4,0.4-1,0-1.4L18.8,16z"/>
</svg>
