<?xml version="1.0" encoding="utf-8"?>
<!-- Generator: Adobe Illustrator 21.1.0, SVG Export Plug-In . SVG Version: 6.00 Build 0)  -->
<svg version="1.1" id="Layer_1" xmlns="http://www.w3.org/2000/svg" xmlns:xlink="http://www.w3.org/1999/xlink" x="0px" y="0px"
	 viewBox="0 0 32 32" style="enable-background:new 0 0 32 32;" xml:space="preserve">
<style type="text/css">
	.Red{fill:#D11C1C;}
</style>
<circle class="Red" cx="20" cy="12" r="2"/>
<path class="Red" d="M29,2H3C2.4,2,2,2.4,2,3v26c0,0.6,0.4,1,1,1h26c0.6,0,1-0.4,1-1V3C30,2.4,29.6,2,29,2z M19,20
	c-0.9,0-1.7-0.2-2.5-0.5L14,22h-2v2h-2v2H6v-4l6.5-6.5C12.2,14.7,12,13.9,12,13c0-3.9,3.1-7,7-7s7,3.1,7,7C26,16.9,22.9,20,19,20z"
	/>
</svg>
