<?xml version="1.0" encoding="utf-8"?>
<!-- Generator: Adobe Illustrator 23.0.1, SVG Export Plug-In . SVG Version: 6.00 Build 0)  -->
<svg version="1.1" id="Layer_1" xmlns="http://www.w3.org/2000/svg" xmlns:xlink="http://www.w3.org/1999/xlink" x="0px" y="0px"
	 viewBox="0 0 32 32" style="enable-background:new 0 0 32 32;" xml:space="preserve">
<style type="text/css">
	.Black{fill:#727272;}
	.Blue{fill:#1177D7;}
</style>
<path class="Black" d="M24,22.8V26H6V4h18v5.2l2-2V3c0-0.5-0.5-1-1-1H5C4.5,2,4,2.5,4,3v24c0,0.5,0.5,1,1,1h20c0.5,0,1-0.5,1-1v-6.2
	L24,22.8z"/>
<path class="Blue" d="M29,15l-8,8l-4-4l8-8L29,15z M30,14l1.7-1.7c0.4-0.4,0.4-1,0-1.3L29,8.3c-0.4-0.4-1-0.4-1.3,0L26,10L30,14z
	 M16,20v4h4L16,20z"/>
</svg>
