<?xml version="1.0" encoding="utf-8"?>
<!-- Generator: Adobe Illustrator 25.4.1, SVG Export Plug-In . SVG Version: 6.00 Build 0)  -->
<svg version="1.1" id="Layer_1" xmlns="http://www.w3.org/2000/svg" xmlns:xlink="http://www.w3.org/1999/xlink" x="0px" y="0px"
	 viewBox="0 0 24 24" style="enable-background:new 0 0 24 24;" xml:space="preserve">
<style type="text/css">
	.st0{fill:none;}
</style>
<g>
	<g>
		<rect fill="none" width="24" height="24"/>
		<rect fill="none" width="24" height="24"/>
	</g>
</g>
<path d="M4,7v13h13c0.5,0,1,0.5,1,1l0,0c0,0.5-0.5,1-1,1H4c-1.1,0-2-0.9-2-2V7c0-0.6,0.5-1,1-1l0,0C3.5,6,4,6.4,4,7z"/>
<path d="M20,2H8C6.9,2,6,2.9,6,4v12c0,1.1,0.9,2,2,2h12c1.1,0,2-0.9,2-2V4C22,2.9,21.1,2,20,2z M20,16H8V4h12V16z"/>
</svg>
