<?xml version="1.0" encoding="utf-8"?>
<!-- Generator: Adobe Illustrator 25.3.1, SVG Export Plug-In . SVG Version: 6.00 Build 0)  -->
<svg version="1.1" id="Layer_1" xmlns="http://www.w3.org/2000/svg" xmlns:xlink="http://www.w3.org/1999/xlink" x="0px" y="0px"
	 viewBox="0 0 96 85.4" style="enable-background:new 0 0 96 85.4;" xml:space="preserve">
<style type="text/css">
	.st0{fill:#2088FF;}
</style>
<path class="st0" d="M27.7,0c-2.6,0-5.1,1.5-6.4,3.7L1,39c-1.3,2.2-1.3,5.2,0,7.5l20.3,35.2c1.3,2.2,3.8,3.7,6.4,3.7h40.6
	c2.6,0,5.1-1.5,6.4-3.7L95,46.5c1.3-2.2,1.3-5.2,0-7.5L74.8,3.7C73.4,1.5,70.9,0,68.3,0H27.7L27.7,0z M28,20.6c0,0,0.1,0,0.2,0h7
	c0.3,0,0.6,0.2,0.8,0.5l11.9,21.2c0.1,0.1,0.1,0.2,0.1,0.3c0-0.1,0-0.2,0.1-0.3l11.9-21.2c0.1-0.3,0.5-0.5,0.8-0.5h7
	c0.6,0,1.1,0.8,0.8,1.4L56.9,42.7l11.6,20.7c0.3,0.6-0.1,1.4-0.8,1.3h-7c-0.3,0-0.6-0.2-0.8-0.5L48.1,43.1C48,43,48,42.9,48,42.8
	c0,0.1,0,0.2-0.1,0.3L36,64.3c-0.2,0.3-0.5,0.5-0.8,0.5h-7c-0.6,0-1.1-0.8-0.8-1.4L39,42.8L27.4,22C27.1,21.5,27.5,20.7,28,20.6
	L28,20.6L28,20.6z"/>
</svg>
