<?xml version="1.0" encoding="utf-8"?>
<!-- Generator: Adobe Illustrator 25.4.1, SVG Export Plug-In . SVG Version: 6.00 Build 0)  -->
<svg version="1.1" id="Layer_1" xmlns="http://www.w3.org/2000/svg" xmlns:xlink="http://www.w3.org/1999/xlink" x="0px" y="0px"
	 viewBox="0 0 24 24" style="enable-background:new 0 0 24 24;" xml:space="preserve">
<rect fill="none" width="24" height="24"/>
<path d="M7,21H4c-0.5,0-1-0.5-1-1V10c0-0.6,0.5-1,1-1h3c0.6,0,1,0.4,1,1v10C8,20.5,7.6,21,7,21z M14,3h-3c-0.6,0-1,0.5-1,1v16
	c0,0.5,0.4,1,1,1h3c0.6,0,1-0.5,1-1V4C15,3.5,14.6,3,14,3z M21,11h-3c-0.5,0-1,0.4-1,1v8c0,0.5,0.5,1,1,1h3c0.5,0,1-0.5,1-1v-8
	C22,11.4,21.5,11,21,11z"/>
</svg>
