<?xml version="1.0" encoding="UTF-8" standalone="yes" ?><svg xmlns:xlink="http://www.w3.org/1999/xlink" xmlns="http://www.w3.org/2000/svg" version="1.1" fill="none" stroke="none" stroke-width="0" class="dxc dxc-chart" style="line-height: normal; user-select: none; -webkit-tap-highlight-color: rgba(0, 0, 0, 0); display: block; overflow: hidden; background-color: rgb(255, 255, 255);" width="690" height="400" direction="ltr" pointer-events="none"><defs><filter id="DevExpress_1" x="-50%" y="-50%" width="200%" height="200%" transform="translate(0,0)"><feGaussianBlur in="SourceGraphic" result="gaussianBlurResult" stdDeviation="3"></feGaussianBlur><feOffset in="gaussianBlurResult" result="offsetResult" dx="2" dy="6"></feOffset><feFlood result="floodResult" flood-color="#d3d3d3" flood-opacity="0.8"></feFlood><feComposite in="floodResult" in2="offsetResult" operator="in" result="compositeResult"></feComposite><feComposite in="SourceGraphic" in2="compositeResult" operator="over"></feComposite></filter><clipPath id="DevExpress_2"><rect x="0" y="0" width="690" height="380" transform="translate(0,0)"></rect></clipPath><clipPath id="DevExpress_4"><rect x="-82" y="-10" width="635" height="58" transform="translate(0,0)"></rect></clipPath><clipPath id="DevExpress_5"><rect x="58" y="60" width="471" height="265" transform="translate(0,0)"></rect></clipPath><clipPath id="DevExpress_6"><rect x="58" y="60" width="471" height="265" transform="translate(0,0)"></rect></clipPath></defs><rect x="0" y="0" width="690" height="380" transform="translate(0,0)" fill="gray" opacity="0.0001"></rect><g class="dxc-background"></g><g class="dxc-title" clip-path="url(#DevExpress_4)" transform="translate(265,2)"><text style="white-space:pre;font-size:28px;font-family:'Segoe UI Light', 'Helvetica Neue Light', 'Segoe UI', 'Helvetica Neue', 'Trebuchet MS', Verdana, sans-serif;font-weight:200;fill:#232323;cursor:default;" x="0" y="30" transform="translate(0,0)" text-anchor="middle"></text></g><g class="dxc-strips-group"><g class="dxc-val-strips" clip-path="url(#DevExpress_5)"></g><g class="dxc-arg-strips" clip-path="url(#DevExpress_5)"></g></g><g class="dxc-grids-group"><g class="dxc-val-grid"><path d="M 58 325 L 529 325" transform="translate(0,-0.5)" stroke="#d3d3d3" stroke-width="1" opacity="1"></path><path d="M 58 259 L 529 259" transform="translate(0,0.5)" stroke="#d3d3d3" stroke-width="1" opacity="1"></path><path d="M 58 192 L 529 192" transform="translate(0,0.5)" stroke="#d3d3d3" stroke-width="1" opacity="1"></path><path d="M 58 126 L 529 126" transform="translate(0,0.5)" stroke="#d3d3d3" stroke-width="1" opacity="1"></path><path d="M 58 60 L 529 60" transform="translate(0,0.5)" stroke="#d3d3d3" stroke-width="1" opacity="1"></path><path d="M 58 309 L 529 309" transform="translate(0,0.5)" stroke="#d3d3d3" stroke-width="1" stroke-opacity="0.3" opacity="1"></path><path d="M 58 292 L 529 292" transform="translate(0,0.5)" stroke="#d3d3d3" stroke-width="1" stroke-opacity="0.3" opacity="1"></path><path d="M 58 276 L 529 276" transform="translate(0,0.5)" stroke="#d3d3d3" stroke-width="1" stroke-opacity="0.3" opacity="1"></path><path d="M 58 242 L 529 242" transform="translate(0,0.5)" stroke="#d3d3d3" stroke-width="1" stroke-opacity="0.3" opacity="1"></path><path d="M 58 226 L 529 226" transform="translate(0,0.5)" stroke="#d3d3d3" stroke-width="1" stroke-opacity="0.3" opacity="1"></path><path d="M 58 209 L 529 209" transform="translate(0,0.5)" stroke="#d3d3d3" stroke-width="1" stroke-opacity="0.3" opacity="1"></path><path d="M 58 176 L 529 176" transform="translate(0,0.5)" stroke="#d3d3d3" stroke-width="1" stroke-opacity="0.3" opacity="1"></path><path d="M 58 159 L 529 159" transform="translate(0,0.5)" stroke="#d3d3d3" stroke-width="1" stroke-opacity="0.3" opacity="1"></path><path d="M 58 143 L 529 143" transform="translate(0,0.5)" stroke="#d3d3d3" stroke-width="1" stroke-opacity="0.3" opacity="1"></path><path d="M 58 109 L 529 109" transform="translate(0,0.5)" stroke="#d3d3d3" stroke-width="1" stroke-opacity="0.3" opacity="1"></path><path d="M 58 93 L 529 93" transform="translate(0,0.5)" stroke="#d3d3d3" stroke-width="1" stroke-opacity="0.3" opacity="1"></path><path d="M 58 76 L 529 76" transform="translate(0,0.5)" stroke="#d3d3d3" stroke-width="1" stroke-opacity="0.3" opacity="1"></path></g><g class="dxc-arg-grid"><path d="M 59 60 L 59 325" transform="translate(0.5,0)" stroke="#d3d3d3" stroke-width="1" opacity="1"></path><path d="M 151 60 L 151 325" transform="translate(0.5,0)" stroke="#d3d3d3" stroke-width="1" opacity="1"></path><path d="M 243 60 L 243 325" transform="translate(0.5,0)" stroke="#d3d3d3" stroke-width="1" opacity="1"></path><path d="M 335 60 L 335 325" transform="translate(0.5,0)" stroke="#d3d3d3" stroke-width="1" opacity="1"></path><path d="M 427 60 L 427 325" transform="translate(0.5,0)" stroke="#d3d3d3" stroke-width="1" opacity="1"></path><path d="M 519 60 L 519 325" transform="translate(0.5,0)" stroke="#d3d3d3" stroke-width="1" opacity="1"></path><path d="M 77 60 L 77 325" transform="translate(0.5,0)" stroke="#d3d3d3" stroke-width="1" stroke-opacity="0.3" opacity="1"></path><path d="M 96 60 L 96 325" transform="translate(0.5,0)" stroke="#d3d3d3" stroke-width="1" stroke-opacity="0.3" opacity="1"></path><path d="M 114 60 L 114 325" transform="translate(0.5,0)" stroke="#d3d3d3" stroke-width="1" stroke-opacity="0.3" opacity="1"></path><path d="M 132 60 L 132 325" transform="translate(0.5,0)" stroke="#d3d3d3" stroke-width="1" stroke-opacity="0.3" opacity="1"></path><path d="M 169 60 L 169 325" transform="translate(0.5,0)" stroke="#d3d3d3" stroke-width="1" stroke-opacity="0.3" opacity="1"></path><path d="M 188 60 L 188 325" transform="translate(0.5,0)" stroke="#d3d3d3" stroke-width="1" stroke-opacity="0.3" opacity="1"></path><path d="M 206 60 L 206 325" transform="translate(0.5,0)" stroke="#d3d3d3" stroke-width="1" stroke-opacity="0.3" opacity="1"></path><path d="M 224 60 L 224 325" transform="translate(0.5,0)" stroke="#d3d3d3" stroke-width="1" stroke-opacity="0.3" opacity="1"></path><path d="M 261 60 L 261 325" transform="translate(0.5,0)" stroke="#d3d3d3" stroke-width="1" stroke-opacity="0.3" opacity="1"></path><path d="M 280 60 L 280 325" transform="translate(0.5,0)" stroke="#d3d3d3" stroke-width="1" stroke-opacity="0.3" opacity="1"></path><path d="M 298 60 L 298 325" transform="translate(0.5,0)" stroke="#d3d3d3" stroke-width="1" stroke-opacity="0.3" opacity="1"></path><path d="M 317 60 L 317 325" transform="translate(0.5,0)" stroke="#d3d3d3" stroke-width="1" stroke-opacity="0.3" opacity="1"></path><path d="M 353 60 L 353 325" transform="translate(0.5,0)" stroke="#d3d3d3" stroke-width="1" stroke-opacity="0.3" opacity="1"></path><path d="M 372 60 L 372 325" transform="translate(0.5,0)" stroke="#d3d3d3" stroke-width="1" stroke-opacity="0.3" opacity="1"></path><path d="M 390 60 L 390 325" transform="translate(0.5,0)" stroke="#d3d3d3" stroke-width="1" stroke-opacity="0.3" opacity="1"></path><path d="M 409 60 L 409 325" transform="translate(0.5,0)" stroke="#d3d3d3" stroke-width="1" stroke-opacity="0.3" opacity="1"></path><path d="M 445 60 L 445 325" transform="translate(0.5,0)" stroke="#d3d3d3" stroke-width="1" stroke-opacity="0.3" opacity="1"></path><path d="M 464 60 L 464 325" transform="translate(0.5,0)" stroke="#d3d3d3" stroke-width="1" stroke-opacity="0.3" opacity="1"></path><path d="M 482 60 L 482 325" transform="translate(0.5,0)" stroke="#d3d3d3" stroke-width="1" stroke-opacity="0.3" opacity="1"></path><path d="M 501 60 L 501 325" transform="translate(0.5,0)" stroke="#d3d3d3" stroke-width="1" stroke-opacity="0.3" opacity="1"></path></g></g><g class="dxc-border"></g><g class="dxc-axes-group"><g class="dxc-val-axis" transform="translate(0,0)" clip-path="url(#DevExpress_2)"><g class="dxc-val-elements"><text style="white-space:pre;fill:#767676;font-family:'Segoe UI', 'Helvetica Neue', 'Trebuchet MS', Verdana, sans-serif;font-weight:400;font-size:12px;cursor:default;" x="58" y="325" transform="translate(-14,4.5)" text-anchor="middle">0</text><text style="white-space:pre;fill:#767676;font-family:'Segoe UI', 'Helvetica Neue', 'Trebuchet MS', Verdana, sans-serif;font-weight:400;font-size:12px;cursor:default;" x="58" y="259" transform="translate(-17,4.5)" text-anchor="middle">50</text><text style="white-space:pre;fill:#767676;font-family:'Segoe UI', 'Helvetica Neue', 'Trebuchet MS', Verdana, sans-serif;font-weight:400;font-size:12px;cursor:default;" x="58" y="192" transform="translate(-20,4.5)" text-anchor="middle">100</text><text style="white-space:pre;fill:#767676;font-family:'Segoe UI', 'Helvetica Neue', 'Trebuchet MS', Verdana, sans-serif;font-weight:400;font-size:12px;cursor:default;" x="58" y="126" transform="translate(-20,4.5)" text-anchor="middle">150</text><text style="white-space:pre;fill:#767676;font-family:'Segoe UI', 'Helvetica Neue', 'Trebuchet MS', Verdana, sans-serif;font-weight:400;font-size:12px;cursor:default;" x="58" y="60" transform="translate(-20,4.5)" text-anchor="middle">200</text></g><g class="dxc-val-line"><path d="M 58 325 L 58 60" transform="translate(0.5,0)" stroke-width="1" stroke="#767676"></path><path d="M 52 325 L 59 325" transform="translate(0,-0.5)" stroke="#767676" stroke-width="1" opacity="1"></path><path d="M 52 259 L 59 259" transform="translate(0,0.5)" stroke="#767676" stroke-width="1" opacity="1"></path><path d="M 52 192 L 59 192" transform="translate(0,0.5)" stroke="#767676" stroke-width="1" opacity="1"></path><path d="M 52 126 L 59 126" transform="translate(0,0.5)" stroke="#767676" stroke-width="1" opacity="1"></path><path d="M 52 60 L 59 60" transform="translate(0,0.5)" stroke="#767676" stroke-width="1" opacity="1"></path></g><g class="dxc-val-title"><text style="white-space:pre;fill:#767676;font-size:16px;font-family:'Segoe UI', 'Helvetica Neue', 'Trebuchet MS', Verdana, sans-serif;font-weight:400;cursor:default;" x="58" y="192.5" transform="translate(-40,0) rotate(270,58,192.5)" text-anchor="middle">Time, milliseconds</text></g></g><g class="dxc-arg-axis" transform="translate(0,0)" clip-path="url(#DevExpress_2)"><g class="dxc-arg-elements"><text style="white-space:pre;fill:#767676;font-family:'Segoe UI', 'Helvetica Neue', 'Trebuchet MS', Verdana, sans-serif;font-weight:400;font-size:12px;cursor:default;" x="59" y="325" transform="translate(0,23)" text-anchor="middle">0</text><text style="white-space:pre;fill:#767676;font-family:'Segoe UI', 'Helvetica Neue', 'Trebuchet MS', Verdana, sans-serif;font-weight:400;font-size:12px;cursor:default;" x="151" y="325" transform="translate(0,23)" text-anchor="middle">100</text><text style="white-space:pre;fill:#767676;font-family:'Segoe UI', 'Helvetica Neue', 'Trebuchet MS', Verdana, sans-serif;font-weight:400;font-size:12px;cursor:default;" x="243" y="325" transform="translate(0,23)" text-anchor="middle">200</text><text style="white-space:pre;fill:#767676;font-family:'Segoe UI', 'Helvetica Neue', 'Trebuchet MS', Verdana, sans-serif;font-weight:400;font-size:12px;cursor:default;" x="335" y="325" transform="translate(0,23)" text-anchor="middle">300</text><text style="white-space:pre;fill:#767676;font-family:'Segoe UI', 'Helvetica Neue', 'Trebuchet MS', Verdana, sans-serif;font-weight:400;font-size:12px;cursor:default;" x="427" y="325" transform="translate(0.5,23)" text-anchor="middle">400</text><text style="white-space:pre;fill:#767676;font-family:'Segoe UI', 'Helvetica Neue', 'Trebuchet MS', Verdana, sans-serif;font-weight:400;font-size:12px;cursor:default;" x="519" y="325" transform="translate(0,23)" text-anchor="middle">500</text></g><g class="dxc-arg-line"><path d="M 58 325 L 529 325" transform="translate(0,-0.5)" stroke-width="1" stroke="#767676"></path><path d="M 59 324 L 59 331" transform="translate(0.5,0)" stroke="#767676" stroke-width="1" opacity="1"></path><path d="M 151 324 L 151 331" transform="translate(0.5,0)" stroke="#767676" stroke-width="1" opacity="1"></path><path d="M 243 324 L 243 331" transform="translate(0.5,0)" stroke="#767676" stroke-width="1" opacity="1"></path><path d="M 335 324 L 335 331" transform="translate(0.5,0)" stroke="#767676" stroke-width="1" opacity="1"></path><path d="M 427 324 L 427 331" transform="translate(0.5,0)" stroke="#767676" stroke-width="1" opacity="1"></path><path d="M 519 324 L 519 331" transform="translate(0.5,0)" stroke="#767676" stroke-width="1" opacity="1"></path></g><g class="dxc-arg-title"><text style="white-space:pre;fill:#767676;font-size:16px;font-family:'Segoe UI', 'Helvetica Neue', 'Trebuchet MS', Verdana, sans-serif;font-weight:400;cursor:default;" x="293.5" y="325" transform="translate(0,51)" text-anchor="middle">Items count</text></g></g></g><g class="dxc-strips-labels-group"><g class="dxc-val-axis-labels"></g><g class="dxc-arg-axis-labels"></g></g><g class="dxc-constant-lines-group"><g class="dxc-val-constant-lines"></g><g class="dxc-val-constant-lines" transform="translate(0,0)"></g><g class="dxc-val-constant-lines" transform="translate(0,0)"></g><g class="dxc-arg-constant-lines"></g><g class="dxc-arg-constant-lines" transform="translate(0,0)"></g><g class="dxc-arg-constant-lines" transform="translate(0,0)"></g></g><g class="dxc-series-group"><g class="dxc-series"><g class="dxc-elements" stroke="Black" stroke-width="2" clip-path="url(#DevExpress_6)"><path d="M 68 324 L 77 324 L 105 324 L 151 323 L 289 321 L 519 320" transform="translate(0,0)" stroke-width="2"></path></g><g fill="Black" stroke="Black" stroke-width="0" r="6" visibility="visible" class="dxc-markers" opacity="1"><circle cx="0" cy="0" r="6" stroke-width="0" transform="translate(68,324)"></circle><circle cx="0" cy="0" r="6" stroke-width="0" transform="translate(77,324)"></circle><circle cx="0" cy="0" r="6" stroke-width="0" transform="translate(105,324)"></circle><circle cx="0" cy="0" r="6" stroke-width="0" transform="translate(151,323)"></circle><circle cx="0" cy="0" r="6" stroke-width="0" transform="translate(289,321)"></circle><circle cx="0" cy="0" r="6" stroke-width="0" visibility="visible" transform="translate(519,320)" fill="Black" stroke="Black"></circle></g><g fill="gray" opacity="0.001" stroke="gray" class="dxc-trackers" clip-path="url(#DevExpress_6)"><path d="M 68 324 L 77 324 L 105 324 L 151 323 L 289 321 L 519 320" transform="translate(0,0)" stroke-width="12" fill="none"></path></g></g><g class="dxc-series"><g class="dxc-elements" stroke="Blue" stroke-width="2" clip-path="url(#DevExpress_6)"><path d="M 68 309 L 77 303 L 105 291 L 151 267 L 289 191 L 519 65" transform="translate(0,0)" stroke-width="2"></path></g><g fill="Blue" stroke="Blue" stroke-width="0" r="6" visibility="visible" class="dxc-markers" opacity="1"><circle cx="0" cy="0" r="6" stroke-width="0" transform="translate(68,309)"></circle><circle cx="0" cy="0" r="6" stroke-width="0" transform="translate(77,303)"></circle><circle cx="0" cy="0" r="6" stroke-width="0" transform="translate(105,291)"></circle><circle cx="0" cy="0" r="6" stroke-width="0" transform="translate(151,267)"></circle><circle cx="0" cy="0" r="6" stroke-width="0" transform="translate(289,191)"></circle><circle cx="0" cy="0" r="6" stroke-width="0" visibility="visible" transform="translate(519,65)" fill="Blue" stroke="Blue"></circle></g><g fill="gray" opacity="0.001" stroke="gray" class="dxc-trackers" clip-path="url(#DevExpress_6)"><path d="M 68 309 L 77 303 L 105 291 L 151 267 L 289 191 L 519 65" transform="translate(0,0)" stroke-width="12" fill="none"></path></g></g><g class="dxc-series"><g class="dxc-elements" stroke="Green" stroke-width="2" clip-path="url(#DevExpress_6)"><path d="M 68 323 L 77 321 L 105 319 L 151 316 L 289 305 L 519 291" transform="translate(0,0)" stroke-width="2"></path></g><g fill="Green" stroke="Green" stroke-width="0" r="6" visibility="visible" class="dxc-markers" opacity="1"><circle cx="0" cy="0" r="6" stroke-width="0" transform="translate(68,323)"></circle><circle cx="0" cy="0" r="6" stroke-width="0" transform="translate(77,321)"></circle><circle cx="0" cy="0" r="6" stroke-width="0" transform="translate(105,319)"></circle><circle cx="0" cy="0" r="6" stroke-width="0" transform="translate(151,316)"></circle><circle cx="0" cy="0" r="6" stroke-width="0" transform="translate(289,305)"></circle><circle cx="0" cy="0" r="6" stroke-width="0" visibility="visible" transform="translate(519,291)" fill="Green" stroke="Green"></circle></g><g fill="gray" opacity="0.001" stroke="gray" class="dxc-trackers" clip-path="url(#DevExpress_6)"><path d="M 68 323 L 77 321 L 105 319 L 151 316 L 289 305 L 519 291" transform="translate(0,0)" stroke-width="12" fill="none"></path></g></g><g class="dxc-series"><g class="dxc-elements" stroke="Red" stroke-width="2" clip-path="url(#DevExpress_6)"><path d="M 68 316 L 77 316 L 105 309 L 151 299 L 289 262 L 519 200" transform="translate(0,0)" stroke-width="2"></path></g><g fill="Red" stroke="Red" stroke-width="0" r="6" visibility="visible" class="dxc-markers" opacity="1"><circle cx="0" cy="0" r="6" stroke-width="0" transform="translate(68,316)"></circle><circle cx="0" cy="0" r="6" stroke-width="0" transform="translate(77,316)"></circle><circle cx="0" cy="0" r="6" stroke-width="0" transform="translate(105,309)"></circle><circle cx="0" cy="0" r="6" stroke-width="0" transform="translate(151,299)"></circle><circle cx="0" cy="0" r="6" stroke-width="0" transform="translate(289,262)"></circle><circle cx="0" cy="0" r="6" stroke-width="0" visibility="visible" transform="translate(519,200)" fill="Red" stroke="Red"></circle></g><g fill="gray" opacity="0.001" stroke="gray" class="dxc-trackers" clip-path="url(#DevExpress_6)"><path d="M 68 316 L 77 316 L 105 309 L 151 299 L 289 262 L 519 200" transform="translate(0,0)" stroke-width="12" fill="none"></path></g></g></g><g class="dxc-constant-lines-group"><g class="dxc-val-constant-lines"></g><g class="dxc-val-constant-lines" transform="translate(0,0)"></g><g class="dxc-val-constant-lines" transform="translate(0,0)"></g><g class="dxc-arg-constant-lines"></g><g class="dxc-arg-constant-lines" transform="translate(0,0)"></g><g class="dxc-arg-constant-lines" transform="translate(0,0)"></g></g><g class="dxc-scale-breaks"></g><g class="dxc-labels-group"><g class="dxc-labels" pointer-events="none" clip-path="url(#DevExpress_6)" opacity="1" transform="translate(0,0)"><g visibility="visible"><g transform="translate(491,311)"><rect x="-9" y="-17" width="24" height="25" transform="translate(0,0)" fill="Black" stroke-width="0" stroke="none" isEmpty="false"></rect><text style="white-space:pre;fill:#ffffff;font-family:'Segoe UI', 'Helvetica Neue', 'Trebuchet MS', Verdana, sans-serif;font-weight:400;font-size:12px;cursor:default;" x="0" y="0" transform="translate(0,0)">4</text></g></g></g><g class="dxc-labels" pointer-events="none" clip-path="url(#DevExpress_6)" opacity="1" transform="translate(0,0)"><g visibility="visible"><g transform="translate(484,98)"><rect x="-8" y="-17" width="36" height="25" transform="translate(0,0)" fill="Blue" stroke-width="0" stroke="none" isEmpty="false"></rect><text style="white-space:pre;fill:#ffffff;font-family:'Segoe UI', 'Helvetica Neue', 'Trebuchet MS', Verdana, sans-serif;font-weight:400;font-size:12px;cursor:default;" x="0" y="0" transform="translate(0,0)">196</text></g></g></g><g class="dxc-labels" pointer-events="none" clip-path="url(#DevExpress_6)" opacity="1" transform="translate(0,0)"><g visibility="visible"><g transform="translate(487,282)"><rect x="-8" y="-17" width="30" height="25" transform="translate(0,0)" fill="Green" stroke-width="0" stroke="none" isEmpty="false"></rect><text style="white-space:pre;fill:#ffffff;font-family:'Segoe UI', 'Helvetica Neue', 'Trebuchet MS', Verdana, sans-serif;font-weight:400;font-size:12px;cursor:default;" x="0" y="0" transform="translate(0,0)">26</text></g></g></g><g class="dxc-labels" pointer-events="none" clip-path="url(#DevExpress_6)" opacity="1" transform="translate(0,0)"><g visibility="visible"><g transform="translate(487,191)"><rect x="-8" y="-17" width="30" height="25" transform="translate(0,0)" fill="Red" stroke-width="0" stroke="none" isEmpty="false"></rect><text style="white-space:pre;fill:#ffffff;font-family:'Segoe UI', 'Helvetica Neue', 'Trebuchet MS', Verdana, sans-serif;font-weight:400;font-size:12px;cursor:default;" x="0" y="0" transform="translate(0,0)">94</text></g></g></g></g><g class="dxc-crosshair-cursor"></g><g class="dxc-legend" clip-path="url(#DevExpress_2)" transform="translate(0,0)"><g transform="translate(539,61)"><g class="dxc-item" style="fill:#767676;font-family:'Segoe UI', 'Helvetica Neue', 'Trebuchet MS', Verdana, sans-serif;font-weight:400;font-size:12px;cursor:default;"><g><g class="dxl-marker" transform="translate(0,3)" visibility="visible"><rect x="0" y="0" width="12" height="12" transform="translate(0,0)" fill="Black" opacity="1"></rect></g><text style="white-space:pre;" x="0" y="0" transform="translate(19,13)" text-anchor="start">EF Core 5 (No Security)</text></g><g><g class="dxl-marker" transform="translate(0,28)" visibility="visible"><rect x="0" y="0" width="12" height="12" transform="translate(0,0)" fill="Blue" opacity="1"></rect></g><text style="white-space:pre;" x="0" y="0" transform="translate(19,38)" text-anchor="start">EF Core 5 (Security)</text></g><g><g class="dxl-marker" transform="translate(0,53)" visibility="visible"><rect x="0" y="0" width="12" height="12" transform="translate(0,0)" fill="Green" opacity="1"></rect></g><text style="white-space:pre;" x="0" y="0" transform="translate(20,63)" text-anchor="start">XPO (No Security)</text></g><g><g class="dxl-marker" transform="translate(0,78)" visibility="visible"><rect x="0" y="0" width="12" height="12" transform="translate(0,0)" fill="Red" opacity="1"></rect></g><text style="white-space:pre;" x="0" y="0" transform="translate(20,88)" text-anchor="start">XPO (Security)</text></g></g></g></g><g class="dxc-annotations"></g></svg>