<?xml version="1.0" encoding="UTF-8" standalone="yes" ?><svg xmlns:xlink="http://www.w3.org/1999/xlink" xmlns="http://www.w3.org/2000/svg" version="1.1" fill="none" stroke="none" stroke-width="0" class="dxc dxc-chart" style="line-height: normal; user-select: none; -webkit-tap-highlight-color: rgba(0, 0, 0, 0); display: block; overflow: hidden; background-color: rgb(255, 255, 255);" width="690" height="400" direction="ltr" pointer-events="none"><defs><filter id="DevExpress_1" x="-50%" y="-50%" width="200%" height="200%" transform="translate(0,0)"><feGaussianBlur in="SourceGraphic" result="gaussianBlurResult" stdDeviation="3"></feGaussianBlur><feOffset in="gaussianBlurResult" result="offsetResult" dx="2" dy="6"></feOffset><feFlood result="floodResult" flood-color="#d3d3d3" flood-opacity="0.8"></feFlood><feComposite in="floodResult" in2="offsetResult" operator="in" result="compositeResult"></feComposite><feComposite in="SourceGraphic" in2="compositeResult" operator="over"></feComposite></filter><clipPath id="DevExpress_2"><rect x="0" y="0" width="690" height="380" transform="translate(0,0)"></rect></clipPath><clipPath id="DevExpress_4"><rect x="-82" y="-10" width="635" height="58" transform="translate(0,0)"></rect></clipPath><clipPath id="DevExpress_5"><rect x="62" y="60" width="467" height="265" transform="translate(0,0)"></rect></clipPath><clipPath id="DevExpress_6"><rect x="62" y="60" width="467" height="265" transform="translate(0,0)"></rect></clipPath></defs><rect x="0" y="0" width="690" height="380" transform="translate(0,0)" fill="gray" opacity="0.0001"></rect><g class="dxc-background"></g><g class="dxc-title" clip-path="url(#DevExpress_4)" transform="translate(265,2)"><text style="white-space:pre;font-size:28px;font-family:'Segoe UI Light', 'Helvetica Neue Light', 'Segoe UI', 'Helvetica Neue', 'Trebuchet MS', Verdana, sans-serif;font-weight:200;fill:#232323;cursor:default;" x="0" y="30" transform="translate(0,0)" text-anchor="middle"></text></g><g class="dxc-strips-group"><g class="dxc-val-strips" clip-path="url(#DevExpress_5)"></g><g class="dxc-arg-strips" clip-path="url(#DevExpress_5)"></g></g><g class="dxc-grids-group"><g class="dxc-val-grid"><path d="M 62 325 L 529 325" transform="translate(0,-0.5)" stroke="#d3d3d3" stroke-width="1" opacity="1"></path><path d="M 62 281 L 529 281" transform="translate(0,0.5)" stroke="#d3d3d3" stroke-width="1" opacity="1"></path><path d="M 62 236 L 529 236" transform="translate(0,0.5)" stroke="#d3d3d3" stroke-width="1" opacity="1"></path><path d="M 62 192 L 529 192" transform="translate(0,0.5)" stroke="#d3d3d3" stroke-width="1" opacity="1"></path><path d="M 62 148 L 529 148" transform="translate(0,0.5)" stroke="#d3d3d3" stroke-width="1" opacity="1"></path><path d="M 62 104 L 529 104" transform="translate(0,0.5)" stroke="#d3d3d3" stroke-width="1" opacity="1"></path><path d="M 62 60 L 529 60" transform="translate(0,0.5)" stroke="#d3d3d3" stroke-width="1" opacity="1"></path><path d="M 62 303 L 529 303" transform="translate(0,0.5)" stroke="#d3d3d3" stroke-width="1" stroke-opacity="0.3" opacity="1"></path><path d="M 62 259 L 529 259" transform="translate(0,0.5)" stroke="#d3d3d3" stroke-width="1" stroke-opacity="0.3" opacity="1"></path><path d="M 62 214 L 529 214" transform="translate(0,0.5)" stroke="#d3d3d3" stroke-width="1" stroke-opacity="0.3" opacity="1"></path><path d="M 62 170 L 529 170" transform="translate(0,0.5)" stroke="#d3d3d3" stroke-width="1" stroke-opacity="0.3" opacity="1"></path><path d="M 62 126 L 529 126" transform="translate(0,0.5)" stroke="#d3d3d3" stroke-width="1" stroke-opacity="0.3" opacity="1"></path><path d="M 62 82 L 529 82" transform="translate(0,0.5)" stroke="#d3d3d3" stroke-width="1" stroke-opacity="0.3" opacity="1"></path></g><g class="dxc-arg-grid"><path d="M 72 60 L 72 325" transform="translate(0.5,0)" stroke="#d3d3d3" stroke-width="1" opacity="1"></path><path d="M 184 60 L 184 325" transform="translate(0.5,0)" stroke="#d3d3d3" stroke-width="1" opacity="1"></path><path d="M 296 60 L 296 325" transform="translate(0.5,0)" stroke="#d3d3d3" stroke-width="1" opacity="1"></path><path d="M 407 60 L 407 325" transform="translate(0.5,0)" stroke="#d3d3d3" stroke-width="1" opacity="1"></path><path d="M 519 60 L 519 325" transform="translate(0.5,0)" stroke="#d3d3d3" stroke-width="1" opacity="1"></path><path d="M 94 60 L 94 325" transform="translate(0.5,0)" stroke="#d3d3d3" stroke-width="1" stroke-opacity="0.3" opacity="1"></path><path d="M 117 60 L 117 325" transform="translate(0.5,0)" stroke="#d3d3d3" stroke-width="1" stroke-opacity="0.3" opacity="1"></path><path d="M 139 60 L 139 325" transform="translate(0.5,0)" stroke="#d3d3d3" stroke-width="1" stroke-opacity="0.3" opacity="1"></path><path d="M 161 60 L 161 325" transform="translate(0.5,0)" stroke="#d3d3d3" stroke-width="1" stroke-opacity="0.3" opacity="1"></path><path d="M 206 60 L 206 325" transform="translate(0.5,0)" stroke="#d3d3d3" stroke-width="1" stroke-opacity="0.3" opacity="1"></path><path d="M 228 60 L 228 325" transform="translate(0.5,0)" stroke="#d3d3d3" stroke-width="1" stroke-opacity="0.3" opacity="1"></path><path d="M 251 60 L 251 325" transform="translate(0.5,0)" stroke="#d3d3d3" stroke-width="1" stroke-opacity="0.3" opacity="1"></path><path d="M 273 60 L 273 325" transform="translate(0.5,0)" stroke="#d3d3d3" stroke-width="1" stroke-opacity="0.3" opacity="1"></path><path d="M 318 60 L 318 325" transform="translate(0.5,0)" stroke="#d3d3d3" stroke-width="1" stroke-opacity="0.3" opacity="1"></path><path d="M 340 60 L 340 325" transform="translate(0.5,0)" stroke="#d3d3d3" stroke-width="1" stroke-opacity="0.3" opacity="1"></path><path d="M 363 60 L 363 325" transform="translate(0.5,0)" stroke="#d3d3d3" stroke-width="1" stroke-opacity="0.3" opacity="1"></path><path d="M 385 60 L 385 325" transform="translate(0.5,0)" stroke="#d3d3d3" stroke-width="1" stroke-opacity="0.3" opacity="1"></path><path d="M 430 60 L 430 325" transform="translate(0.5,0)" stroke="#d3d3d3" stroke-width="1" stroke-opacity="0.3" opacity="1"></path><path d="M 452 60 L 452 325" transform="translate(0.5,0)" stroke="#d3d3d3" stroke-width="1" stroke-opacity="0.3" opacity="1"></path><path d="M 474 60 L 474 325" transform="translate(0.5,0)" stroke="#d3d3d3" stroke-width="1" stroke-opacity="0.3" opacity="1"></path><path d="M 497 60 L 497 325" transform="translate(0.5,0)" stroke="#d3d3d3" stroke-width="1" stroke-opacity="0.3" opacity="1"></path></g></g><g class="dxc-border"></g><g class="dxc-axes-group"><g class="dxc-val-axis" transform="translate(0,0)" clip-path="url(#DevExpress_2)"><g class="dxc-val-elements"><text style="white-space:pre;fill:#767676;font-family:'Segoe UI', 'Helvetica Neue', 'Trebuchet MS', Verdana, sans-serif;font-weight:400;font-size:12px;cursor:default;" x="62" y="325" transform="translate(-14,4.5)" text-anchor="middle">0</text><text style="white-space:pre;fill:#767676;font-family:'Segoe UI', 'Helvetica Neue', 'Trebuchet MS', Verdana, sans-serif;font-weight:400;font-size:12px;cursor:default;" x="62" y="281" transform="translate(-20,4.5)" text-anchor="middle">500</text><text style="white-space:pre;fill:#767676;font-family:'Segoe UI', 'Helvetica Neue', 'Trebuchet MS', Verdana, sans-serif;font-weight:400;font-size:12px;cursor:default;" x="62" y="236" transform="translate(-22,4.5)" text-anchor="middle">1.0K</text><text style="white-space:pre;fill:#767676;font-family:'Segoe UI', 'Helvetica Neue', 'Trebuchet MS', Verdana, sans-serif;font-weight:400;font-size:12px;cursor:default;" x="62" y="192" transform="translate(-22,4.5)" text-anchor="middle">1.5K</text><text style="white-space:pre;fill:#767676;font-family:'Segoe UI', 'Helvetica Neue', 'Trebuchet MS', Verdana, sans-serif;font-weight:400;font-size:12px;cursor:default;" x="62" y="148" transform="translate(-22,4.5)" text-anchor="middle">2.0K</text><text style="white-space:pre;fill:#767676;font-family:'Segoe UI', 'Helvetica Neue', 'Trebuchet MS', Verdana, sans-serif;font-weight:400;font-size:12px;cursor:default;" x="62" y="104" transform="translate(-22,4.5)" text-anchor="middle">2.5K</text><text style="white-space:pre;fill:#767676;font-family:'Segoe UI', 'Helvetica Neue', 'Trebuchet MS', Verdana, sans-serif;font-weight:400;font-size:12px;cursor:default;" x="62" y="60" transform="translate(-22,4.5)" text-anchor="middle">3.0K</text></g><g class="dxc-val-line"><path d="M 62 325 L 62 60" transform="translate(0.5,0)" stroke-width="1" stroke="#767676"></path><path d="M 56 325 L 63 325" transform="translate(0,-0.5)" stroke="#767676" stroke-width="1" opacity="1"></path><path d="M 56 281 L 63 281" transform="translate(0,0.5)" stroke="#767676" stroke-width="1" opacity="1"></path><path d="M 56 236 L 63 236" transform="translate(0,0.5)" stroke="#767676" stroke-width="1" opacity="1"></path><path d="M 56 192 L 63 192" transform="translate(0,0.5)" stroke="#767676" stroke-width="1" opacity="1"></path><path d="M 56 148 L 63 148" transform="translate(0,0.5)" stroke="#767676" stroke-width="1" opacity="1"></path><path d="M 56 104 L 63 104" transform="translate(0,0.5)" stroke="#767676" stroke-width="1" opacity="1"></path><path d="M 56 60 L 63 60" transform="translate(0,0.5)" stroke="#767676" stroke-width="1" opacity="1"></path></g><g class="dxc-val-title"><text style="white-space:pre;fill:#767676;font-size:16px;font-family:'Segoe UI', 'Helvetica Neue', 'Trebuchet MS', Verdana, sans-serif;font-weight:400;cursor:default;" x="62" y="192.5" transform="translate(-44,0) rotate(270,62,192.5)" text-anchor="middle">Time, milliseconds</text></g></g><g class="dxc-arg-axis" transform="translate(0,0)" clip-path="url(#DevExpress_2)"><g class="dxc-arg-elements"><text style="white-space:pre;fill:#767676;font-family:'Segoe UI', 'Helvetica Neue', 'Trebuchet MS', Verdana, sans-serif;font-weight:400;font-size:12px;cursor:default;" x="72" y="325" transform="translate(-0.5,23)" text-anchor="middle">1K</text><text style="white-space:pre;fill:#767676;font-family:'Segoe UI', 'Helvetica Neue', 'Trebuchet MS', Verdana, sans-serif;font-weight:400;font-size:12px;cursor:default;" x="184" y="325" transform="translate(-0.5,23)" text-anchor="middle">2K</text><text style="white-space:pre;fill:#767676;font-family:'Segoe UI', 'Helvetica Neue', 'Trebuchet MS', Verdana, sans-serif;font-weight:400;font-size:12px;cursor:default;" x="296" y="325" transform="translate(-0.5,23)" text-anchor="middle">3K</text><text style="white-space:pre;fill:#767676;font-family:'Segoe UI', 'Helvetica Neue', 'Trebuchet MS', Verdana, sans-serif;font-weight:400;font-size:12px;cursor:default;" x="407" y="325" transform="translate(0,23)" text-anchor="middle">4K</text><text style="white-space:pre;fill:#767676;font-family:'Segoe UI', 'Helvetica Neue', 'Trebuchet MS', Verdana, sans-serif;font-weight:400;font-size:12px;cursor:default;" x="519" y="325" transform="translate(-0.5,23)" text-anchor="middle">5K</text></g><g class="dxc-arg-line"><path d="M 62 325 L 529 325" transform="translate(0,-0.5)" stroke-width="1" stroke="#767676"></path><path d="M 72 324 L 72 331" transform="translate(0.5,0)" stroke="#767676" stroke-width="1" opacity="1"></path><path d="M 184 324 L 184 331" transform="translate(0.5,0)" stroke="#767676" stroke-width="1" opacity="1"></path><path d="M 296 324 L 296 331" transform="translate(0.5,0)" stroke="#767676" stroke-width="1" opacity="1"></path><path d="M 407 324 L 407 331" transform="translate(0.5,0)" stroke="#767676" stroke-width="1" opacity="1"></path><path d="M 519 324 L 519 331" transform="translate(0.5,0)" stroke="#767676" stroke-width="1" opacity="1"></path></g><g class="dxc-arg-title"><text style="white-space:pre;fill:#767676;font-size:16px;font-family:'Segoe UI', 'Helvetica Neue', 'Trebuchet MS', Verdana, sans-serif;font-weight:400;cursor:default;" x="295.5" y="325" transform="translate(0,51)" text-anchor="middle">Items count</text></g></g></g><g class="dxc-strips-labels-group"><g class="dxc-val-axis-labels"></g><g class="dxc-arg-axis-labels"></g></g><g class="dxc-constant-lines-group"><g class="dxc-val-constant-lines"></g><g class="dxc-val-constant-lines" transform="translate(0,0)"></g><g class="dxc-val-constant-lines" transform="translate(0,0)"></g><g class="dxc-arg-constant-lines"></g><g class="dxc-arg-constant-lines" transform="translate(0,0)"></g><g class="dxc-arg-constant-lines" transform="translate(0,0)"></g></g><g class="dxc-series-group"><g class="dxc-series"><g class="dxc-elements" stroke="Black" stroke-width="2" clip-path="url(#DevExpress_6)"><path d="M 72 324 L 240 323 L 519 323" transform="translate(0,0)" stroke-width="2"></path></g><g fill="Black" stroke="Black" stroke-width="0" r="6" visibility="visible" class="dxc-markers" opacity="1"><circle cx="0" cy="0" r="6" stroke-width="0" transform="translate(72,324)"></circle><circle cx="0" cy="0" r="6" stroke-width="0" transform="translate(240,323)"></circle><circle cx="0" cy="0" r="6" stroke-width="0" visibility="visible" transform="translate(519,323)" fill="Black" stroke="Black"></circle></g><g fill="gray" opacity="0.001" stroke="gray" class="dxc-trackers" clip-path="url(#DevExpress_6)"><path d="M 72 324 L 240 323 L 519 323" transform="translate(0,0)" stroke-width="12" fill="none"></path></g></g><g class="dxc-series"><g class="dxc-elements" stroke="Blue" stroke-width="2" clip-path="url(#DevExpress_6)"><path d="M 72 289 L 240 224 L 519 73" transform="translate(0,0)" stroke-width="2"></path></g><g fill="Blue" stroke="Blue" stroke-width="0" r="6" visibility="visible" class="dxc-markers" opacity="1"><circle cx="0" cy="0" r="6" stroke-width="0" transform="translate(72,289)"></circle><circle cx="0" cy="0" r="6" stroke-width="0" transform="translate(240,224)"></circle><circle cx="0" cy="0" r="6" fill="Blue" stroke="Blue" stroke-width="0" visibility="visible" transform="translate(519,73)"></circle></g><g fill="gray" opacity="0.001" stroke="gray" class="dxc-trackers" clip-path="url(#DevExpress_6)"><path d="M 72 289 L 240 224 L 519 73" transform="translate(0,0)" stroke-width="12" fill="none"></path></g></g><g class="dxc-series"><g class="dxc-elements" stroke="Green" stroke-width="2" clip-path="url(#DevExpress_6)"><path d="M 72 320 L 240 311 L 519 301" transform="translate(0,0)" stroke-width="2"></path></g><g fill="Green" stroke="Green" stroke-width="0" r="6" visibility="visible" class="dxc-markers" opacity="1"><circle cx="0" cy="0" r="6" stroke-width="0" transform="translate(72,320)"></circle><circle cx="0" cy="0" r="6" stroke-width="0" transform="translate(240,311)"></circle><circle cx="0" cy="0" r="6" fill="Green" stroke="Green" stroke-width="0" visibility="visible" transform="translate(519,301)"></circle></g><g fill="gray" opacity="0.001" stroke="gray" class="dxc-trackers" clip-path="url(#DevExpress_6)"><path d="M 72 320 L 240 311 L 519 301" transform="translate(0,0)" stroke-width="12" fill="none"></path></g></g><g class="dxc-series"><g class="dxc-elements" stroke="Red" stroke-width="2" clip-path="url(#DevExpress_6)"><path d="M 72 308 L 240 283 L 519 239" transform="translate(0,0)" stroke-width="2"></path></g><g fill="Red" stroke="Red" stroke-width="0" r="6" visibility="visible" class="dxc-markers" opacity="1"><circle cx="0" cy="0" r="6" stroke-width="0" transform="translate(72,308)"></circle><circle cx="0" cy="0" r="6" stroke-width="0" transform="translate(240,283)"></circle><circle cx="0" cy="0" r="6" fill="Red" stroke="Red" stroke-width="0" visibility="visible" transform="translate(519,239)"></circle></g><g fill="gray" opacity="0.001" stroke="gray" class="dxc-trackers" clip-path="url(#DevExpress_6)"><path d="M 72 308 L 240 283 L 519 239" transform="translate(0,0)" stroke-width="12" fill="none"></path></g></g></g><g class="dxc-constant-lines-group"><g class="dxc-val-constant-lines"></g><g class="dxc-val-constant-lines" transform="translate(0,0)"></g><g class="dxc-val-constant-lines" transform="translate(0,0)"></g><g class="dxc-arg-constant-lines"></g><g class="dxc-arg-constant-lines" transform="translate(0,0)"></g><g class="dxc-arg-constant-lines" transform="translate(0,0)"></g></g><g class="dxc-scale-breaks"></g><g class="dxc-labels-group"><g class="dxc-labels" pointer-events="none" clip-path="url(#DevExpress_6)" opacity="1" transform="translate(0,0)"><g visibility="visible"><g transform="translate(487,314)"><rect x="-8" y="-17" width="30" height="25" transform="translate(0,0)" fill="Black" stroke-width="0" stroke="none" isEmpty="false"></rect><text style="white-space:pre;fill:#ffffff;font-family:'Segoe UI', 'Helvetica Neue', 'Trebuchet MS', Verdana, sans-serif;font-weight:400;font-size:12px;cursor:default;" x="0" y="0" transform="translate(0,0)">19</text></g></g></g><g class="dxc-labels" pointer-events="none" clip-path="url(#DevExpress_6)" opacity="1" transform="translate(0,0)"><g visibility="visible"><g transform="translate(481,106)"><rect x="-8" y="-17" width="43" height="25" transform="translate(0,0)" fill="Blue" stroke-width="0" stroke="none" isEmpty="false"></rect><text style="white-space:pre;fill:#ffffff;font-family:'Segoe UI', 'Helvetica Neue', 'Trebuchet MS', Verdana, sans-serif;font-weight:400;font-size:12px;cursor:default;" x="0" y="0" transform="translate(0,0)">2847</text></g></g></g><g class="dxc-labels" pointer-events="none" clip-path="url(#DevExpress_6)" opacity="1" transform="translate(0,0)"><g visibility="visible"><g transform="translate(484,292)"><rect x="-8" y="-17" width="36" height="25" transform="translate(0,0)" fill="Green" stroke-width="0" stroke="none" isEmpty="false"></rect><text style="white-space:pre;fill:#ffffff;font-family:'Segoe UI', 'Helvetica Neue', 'Trebuchet MS', Verdana, sans-serif;font-weight:400;font-size:12px;cursor:default;" x="0" y="0" transform="translate(0,0)">268</text></g></g></g><g class="dxc-labels" pointer-events="none" clip-path="url(#DevExpress_6)" opacity="1" transform="translate(0,0)"><g visibility="visible"><g transform="translate(484,230)"><rect x="-8" y="-17" width="36" height="25" transform="translate(0,0)" fill="Red" stroke-width="0" stroke="none" isEmpty="false"></rect><text style="white-space:pre;fill:#ffffff;font-family:'Segoe UI', 'Helvetica Neue', 'Trebuchet MS', Verdana, sans-serif;font-weight:400;font-size:12px;cursor:default;" x="0" y="0" transform="translate(0,0)">967</text></g></g></g></g><g class="dxc-crosshair-cursor"></g><g class="dxc-legend" clip-path="url(#DevExpress_2)" transform="translate(0,0)"><g transform="translate(539,61)"><g class="dxc-item" style="fill:#767676;font-family:'Segoe UI', 'Helvetica Neue', 'Trebuchet MS', Verdana, sans-serif;font-weight:400;font-size:12px;cursor:default;"><g><g class="dxl-marker" transform="translate(0,3)" visibility="visible"><rect x="0" y="0" width="12" height="12" transform="translate(0,0)" fill="Black" opacity="1"></rect></g><text style="white-space:pre;" x="0" y="0" transform="translate(19,13)" text-anchor="start">EF Core 5 (No Security)</text></g><g><g class="dxl-marker" transform="translate(0,28)" visibility="visible"><rect x="0" y="0" width="12" height="12" transform="translate(0,0)" fill="Blue" opacity="1"></rect></g><text style="white-space:pre;" x="0" y="0" transform="translate(19,38)" text-anchor="start">EF Core 5 (Security)</text></g><g><g class="dxl-marker" transform="translate(0,53)" visibility="visible"><rect x="0" y="0" width="12" height="12" transform="translate(0,0)" fill="Green" opacity="1"></rect></g><text style="white-space:pre;" x="0" y="0" transform="translate(20,63)" text-anchor="start">XPO (No Security)</text></g><g><g class="dxl-marker" transform="translate(0,78)" visibility="visible"><rect x="0" y="0" width="12" height="12" transform="translate(0,0)" fill="Red" opacity="1"></rect></g><text style="white-space:pre;" x="0" y="0" transform="translate(20,88)" text-anchor="start">XPO (Security)</text></g></g></g></g><g class="dxc-annotations"></g></svg>