<?xml version="1.0" encoding="UTF-8" standalone="yes" ?><svg xmlns:xlink="http://www.w3.org/1999/xlink" xmlns="http://www.w3.org/2000/svg" version="1.1" fill="none" stroke="none" stroke-width="0" class="dxc dxc-chart" style="line-height: normal; user-select: none; -webkit-tap-highlight-color: rgba(0, 0, 0, 0); display: block; overflow: hidden; background-color: rgb(255, 255, 255);" width="690" height="400" direction="ltr" pointer-events="none"><defs><filter id="DevExpress_7" x="-50%" y="-50%" width="200%" height="200%" transform="translate(0,0)"><feGaussianBlur in="SourceGraphic" result="gaussianBlurResult" stdDeviation="3"></feGaussianBlur><feOffset in="gaussianBlurResult" result="offsetResult" dx="2" dy="6"></feOffset><feFlood result="floodResult" flood-color="#d3d3d3" flood-opacity="0.8"></feFlood><feComposite in="floodResult" in2="offsetResult" operator="in" result="compositeResult"></feComposite><feComposite in="SourceGraphic" in2="compositeResult" operator="over"></feComposite></filter><clipPath id="DevExpress_8"><rect x="0" y="0" width="690" height="380" transform="translate(0,0)"></rect></clipPath><clipPath id="DevExpress_10"><rect x="-60" y="-10" width="635" height="58" transform="translate(0,0)"></rect></clipPath><clipPath id="DevExpress_11"><rect x="59" y="60" width="470" height="265" transform="translate(0,0)"></rect></clipPath><clipPath id="DevExpress_12"><rect x="59" y="60" width="470" height="265" transform="translate(0,0)"></rect></clipPath></defs><rect x="0" y="0" width="690" height="380" transform="translate(0,0)" fill="gray" opacity="0.0001"></rect><g class="dxc-background"></g><g class="dxc-title" clip-path="url(#DevExpress_10)" transform="translate(265,2)"><text style="white-space:pre;font-size:28px;font-family:'Segoe UI Light', 'Helvetica Neue Light', 'Segoe UI', 'Helvetica Neue', 'Trebuchet MS', Verdana, sans-serif;font-weight:200;fill:#232323;cursor:default;" x="0" y="30" transform="translate(0,0)" text-anchor="middle"></text></g><g class="dxc-strips-group"><g class="dxc-val-strips" clip-path="url(#DevExpress_11)"></g><g class="dxc-arg-strips" clip-path="url(#DevExpress_11)"></g></g><g class="dxc-grids-group"><g class="dxc-val-grid"><path d="M 59 325 L 529 325" transform="translate(0,-0.5)" stroke="#d3d3d3" stroke-width="1" opacity="1"></path><path d="M 59 272 L 529 272" transform="translate(0,0.5)" stroke="#d3d3d3" stroke-width="1" opacity="1"></path><path d="M 59 219 L 529 219" transform="translate(0,0.5)" stroke="#d3d3d3" stroke-width="1" opacity="1"></path><path d="M 59 166 L 529 166" transform="translate(0,0.5)" stroke="#d3d3d3" stroke-width="1" opacity="1"></path><path d="M 59 113 L 529 113" transform="translate(0,0.5)" stroke="#d3d3d3" stroke-width="1" opacity="1"></path><path d="M 59 60 L 529 60" transform="translate(0,0.5)" stroke="#d3d3d3" stroke-width="1" opacity="1"></path><path d="M 59 312 L 529 312" transform="translate(0,0.5)" stroke="#d3d3d3" stroke-width="1" stroke-opacity="0.3" opacity="1"></path><path d="M 59 299 L 529 299" transform="translate(0,0.5)" stroke="#d3d3d3" stroke-width="1" stroke-opacity="0.3" opacity="1"></path><path d="M 59 286 L 529 286" transform="translate(0,0.5)" stroke="#d3d3d3" stroke-width="1" stroke-opacity="0.3" opacity="1"></path><path d="M 59 259 L 529 259" transform="translate(0,0.5)" stroke="#d3d3d3" stroke-width="1" stroke-opacity="0.3" opacity="1"></path><path d="M 59 246 L 529 246" transform="translate(0,0.5)" stroke="#d3d3d3" stroke-width="1" stroke-opacity="0.3" opacity="1"></path><path d="M 59 233 L 529 233" transform="translate(0,0.5)" stroke="#d3d3d3" stroke-width="1" stroke-opacity="0.3" opacity="1"></path><path d="M 59 206 L 529 206" transform="translate(0,0.5)" stroke="#d3d3d3" stroke-width="1" stroke-opacity="0.3" opacity="1"></path><path d="M 59 193 L 529 193" transform="translate(0,0.5)" stroke="#d3d3d3" stroke-width="1" stroke-opacity="0.3" opacity="1"></path><path d="M 59 180 L 529 180" transform="translate(0,0.5)" stroke="#d3d3d3" stroke-width="1" stroke-opacity="0.3" opacity="1"></path><path d="M 59 153 L 529 153" transform="translate(0,0.5)" stroke="#d3d3d3" stroke-width="1" stroke-opacity="0.3" opacity="1"></path><path d="M 59 140 L 529 140" transform="translate(0,0.5)" stroke="#d3d3d3" stroke-width="1" stroke-opacity="0.3" opacity="1"></path><path d="M 59 127 L 529 127" transform="translate(0,0.5)" stroke="#d3d3d3" stroke-width="1" stroke-opacity="0.3" opacity="1"></path><path d="M 59 100 L 529 100" transform="translate(0,0.5)" stroke="#d3d3d3" stroke-width="1" stroke-opacity="0.3" opacity="1"></path><path d="M 59 87 L 529 87" transform="translate(0,0.5)" stroke="#d3d3d3" stroke-width="1" stroke-opacity="0.3" opacity="1"></path><path d="M 59 74 L 529 74" transform="translate(0,0.5)" stroke="#d3d3d3" stroke-width="1" stroke-opacity="0.3" opacity="1"></path></g><g class="dxc-arg-grid"><path d="M 69 60 L 69 325" transform="translate(0.5,0)" stroke="#d3d3d3" stroke-width="1" opacity="1"></path><path d="M 182 60 L 182 325" transform="translate(0.5,0)" stroke="#d3d3d3" stroke-width="1" opacity="1"></path><path d="M 294 60 L 294 325" transform="translate(0.5,0)" stroke="#d3d3d3" stroke-width="1" opacity="1"></path><path d="M 407 60 L 407 325" transform="translate(0.5,0)" stroke="#d3d3d3" stroke-width="1" opacity="1"></path><path d="M 519 60 L 519 325" transform="translate(0.5,0)" stroke="#d3d3d3" stroke-width="1" opacity="1"></path><path d="M 92 60 L 92 325" transform="translate(0.5,0)" stroke="#d3d3d3" stroke-width="1" stroke-opacity="0.3" opacity="1"></path><path d="M 114 60 L 114 325" transform="translate(0.5,0)" stroke="#d3d3d3" stroke-width="1" stroke-opacity="0.3" opacity="1"></path><path d="M 137 60 L 137 325" transform="translate(0.5,0)" stroke="#d3d3d3" stroke-width="1" stroke-opacity="0.3" opacity="1"></path><path d="M 159 60 L 159 325" transform="translate(0.5,0)" stroke="#d3d3d3" stroke-width="1" stroke-opacity="0.3" opacity="1"></path><path d="M 204 60 L 204 325" transform="translate(0.5,0)" stroke="#d3d3d3" stroke-width="1" stroke-opacity="0.3" opacity="1"></path><path d="M 227 60 L 227 325" transform="translate(0.5,0)" stroke="#d3d3d3" stroke-width="1" stroke-opacity="0.3" opacity="1"></path><path d="M 249 60 L 249 325" transform="translate(0.5,0)" stroke="#d3d3d3" stroke-width="1" stroke-opacity="0.3" opacity="1"></path><path d="M 272 60 L 272 325" transform="translate(0.5,0)" stroke="#d3d3d3" stroke-width="1" stroke-opacity="0.3" opacity="1"></path><path d="M 317 60 L 317 325" transform="translate(0.5,0)" stroke="#d3d3d3" stroke-width="1" stroke-opacity="0.3" opacity="1"></path><path d="M 339 60 L 339 325" transform="translate(0.5,0)" stroke="#d3d3d3" stroke-width="1" stroke-opacity="0.3" opacity="1"></path><path d="M 362 60 L 362 325" transform="translate(0.5,0)" stroke="#d3d3d3" stroke-width="1" stroke-opacity="0.3" opacity="1"></path><path d="M 384 60 L 384 325" transform="translate(0.5,0)" stroke="#d3d3d3" stroke-width="1" stroke-opacity="0.3" opacity="1"></path><path d="M 429 60 L 429 325" transform="translate(0.5,0)" stroke="#d3d3d3" stroke-width="1" stroke-opacity="0.3" opacity="1"></path><path d="M 452 60 L 452 325" transform="translate(0.5,0)" stroke="#d3d3d3" stroke-width="1" stroke-opacity="0.3" opacity="1"></path><path d="M 474 60 L 474 325" transform="translate(0.5,0)" stroke="#d3d3d3" stroke-width="1" stroke-opacity="0.3" opacity="1"></path><path d="M 497 60 L 497 325" transform="translate(0.5,0)" stroke="#d3d3d3" stroke-width="1" stroke-opacity="0.3" opacity="1"></path></g></g><g class="dxc-border"></g><g class="dxc-axes-group"><g class="dxc-val-axis" transform="translate(0,0)" clip-path="url(#DevExpress_8)"><g class="dxc-val-elements"><text style="white-space:pre;fill:#767676;font-family:'Segoe UI', 'Helvetica Neue', 'Trebuchet MS', Verdana, sans-serif;font-weight:400;font-size:12px;cursor:default;" x="59" y="325" transform="translate(-14,4.5)" text-anchor="middle">0</text><text style="white-space:pre;fill:#767676;font-family:'Segoe UI', 'Helvetica Neue', 'Trebuchet MS', Verdana, sans-serif;font-weight:400;font-size:12px;cursor:default;" x="59" y="272" transform="translate(-18,4.5)" text-anchor="middle">5K</text><text style="white-space:pre;fill:#767676;font-family:'Segoe UI', 'Helvetica Neue', 'Trebuchet MS', Verdana, sans-serif;font-weight:400;font-size:12px;cursor:default;" x="59" y="219" transform="translate(-21,4.5)" text-anchor="middle">10K</text><text style="white-space:pre;fill:#767676;font-family:'Segoe UI', 'Helvetica Neue', 'Trebuchet MS', Verdana, sans-serif;font-weight:400;font-size:12px;cursor:default;" x="59" y="166" transform="translate(-21,4.5)" text-anchor="middle">15K</text><text style="white-space:pre;fill:#767676;font-family:'Segoe UI', 'Helvetica Neue', 'Trebuchet MS', Verdana, sans-serif;font-weight:400;font-size:12px;cursor:default;" x="59" y="113" transform="translate(-21,4.5)" text-anchor="middle">20K</text><text style="white-space:pre;fill:#767676;font-family:'Segoe UI', 'Helvetica Neue', 'Trebuchet MS', Verdana, sans-serif;font-weight:400;font-size:12px;cursor:default;" x="59" y="60" transform="translate(-21,4.5)" text-anchor="middle">25K</text></g><g class="dxc-val-line"><path d="M 59 325 L 59 60" transform="translate(0.5,0)" stroke-width="1" stroke="#767676"></path><path d="M 53 325 L 60 325" transform="translate(0,-0.5)" stroke="#767676" stroke-width="1" opacity="1"></path><path d="M 53 272 L 60 272" transform="translate(0,0.5)" stroke="#767676" stroke-width="1" opacity="1"></path><path d="M 53 219 L 60 219" transform="translate(0,0.5)" stroke="#767676" stroke-width="1" opacity="1"></path><path d="M 53 166 L 60 166" transform="translate(0,0.5)" stroke="#767676" stroke-width="1" opacity="1"></path><path d="M 53 113 L 60 113" transform="translate(0,0.5)" stroke="#767676" stroke-width="1" opacity="1"></path><path d="M 53 60 L 60 60" transform="translate(0,0.5)" stroke="#767676" stroke-width="1" opacity="1"></path></g><g class="dxc-val-title"><text style="white-space:pre;fill:#767676;font-size:16px;font-family:'Segoe UI', 'Helvetica Neue', 'Trebuchet MS', Verdana, sans-serif;font-weight:400;cursor:default;" x="59" y="192.5" transform="translate(-41,0) rotate(270,59,192.5)" text-anchor="middle">Time, milliseconds</text></g></g><g class="dxc-arg-axis" transform="translate(0,0)" clip-path="url(#DevExpress_8)"><g class="dxc-arg-elements"><text style="white-space:pre;fill:#767676;font-family:'Segoe UI', 'Helvetica Neue', 'Trebuchet MS', Verdana, sans-serif;font-weight:400;font-size:12px;cursor:default;" x="69" y="325" transform="translate(-0.5,23)" text-anchor="middle">1K</text><text style="white-space:pre;fill:#767676;font-family:'Segoe UI', 'Helvetica Neue', 'Trebuchet MS', Verdana, sans-serif;font-weight:400;font-size:12px;cursor:default;" x="182" y="325" transform="translate(-0.5,23)" text-anchor="middle">2K</text><text style="white-space:pre;fill:#767676;font-family:'Segoe UI', 'Helvetica Neue', 'Trebuchet MS', Verdana, sans-serif;font-weight:400;font-size:12px;cursor:default;" x="294" y="325" transform="translate(-0.5,23)" text-anchor="middle">3K</text><text style="white-space:pre;fill:#767676;font-family:'Segoe UI', 'Helvetica Neue', 'Trebuchet MS', Verdana, sans-serif;font-weight:400;font-size:12px;cursor:default;" x="407" y="325" transform="translate(0,23)" text-anchor="middle">4K</text><text style="white-space:pre;fill:#767676;font-family:'Segoe UI', 'Helvetica Neue', 'Trebuchet MS', Verdana, sans-serif;font-weight:400;font-size:12px;cursor:default;" x="519" y="325" transform="translate(-0.5,23)" text-anchor="middle">5K</text></g><g class="dxc-arg-line"><path d="M 59 325 L 529 325" transform="translate(0,-0.5)" stroke-width="1" stroke="#767676"></path><path d="M 69 324 L 69 331" transform="translate(0.5,0)" stroke="#767676" stroke-width="1" opacity="1"></path><path d="M 182 324 L 182 331" transform="translate(0.5,0)" stroke="#767676" stroke-width="1" opacity="1"></path><path d="M 294 324 L 294 331" transform="translate(0.5,0)" stroke="#767676" stroke-width="1" opacity="1"></path><path d="M 407 324 L 407 331" transform="translate(0.5,0)" stroke="#767676" stroke-width="1" opacity="1"></path><path d="M 519 324 L 519 331" transform="translate(0.5,0)" stroke="#767676" stroke-width="1" opacity="1"></path></g><g class="dxc-arg-title"><text style="white-space:pre;fill:#767676;font-size:16px;font-family:'Segoe UI', 'Helvetica Neue', 'Trebuchet MS', Verdana, sans-serif;font-weight:400;cursor:default;" x="294" y="325" transform="translate(0,51)" text-anchor="middle">Items count</text></g></g></g><g class="dxc-strips-labels-group"><g class="dxc-val-axis-labels"></g><g class="dxc-arg-axis-labels"></g></g><g class="dxc-constant-lines-group"><g class="dxc-val-constant-lines"></g><g class="dxc-val-constant-lines" transform="translate(0,0)"></g><g class="dxc-val-constant-lines" transform="translate(0,0)"></g><g class="dxc-arg-constant-lines"></g><g class="dxc-arg-constant-lines" transform="translate(0,0)"></g><g class="dxc-arg-constant-lines" transform="translate(0,0)"></g></g><g class="dxc-series-group"><g class="dxc-series"><g class="dxc-elements" stroke="Black" stroke-width="2" clip-path="url(#DevExpress_12)"><path d="M 69 325 L 238 325 L 519 324" transform="translate(0,0)" stroke-width="2"></path></g><g fill="Black" stroke="Black" stroke-width="0" r="6" visibility="visible" class="dxc-markers" opacity="1"><circle cx="0" cy="0" r="6" stroke-width="0" transform="translate(69,325)"></circle><circle cx="0" cy="0" r="6" stroke-width="0" transform="translate(238,325)"></circle><circle cx="0" cy="0" r="6" stroke-width="0" transform="translate(519,324)"></circle></g><g fill="gray" opacity="0.001" stroke="gray" class="dxc-trackers" clip-path="url(#DevExpress_12)"><path d="M 69 325 L 238 325 L 519 324" transform="translate(0,0)" stroke-width="12" fill="none"></path></g></g><g class="dxc-series"><g class="dxc-elements" stroke="Blue" stroke-width="2" clip-path="url(#DevExpress_12)"><path d="M 69 312 L 238 292 L 519 260" transform="translate(0,0)" stroke-width="2"></path></g><g fill="Blue" stroke="Blue" stroke-width="0" r="6" visibility="visible" class="dxc-markers" opacity="1"><circle cx="0" cy="0" r="6" stroke-width="0" transform="translate(69,312)"></circle><circle cx="0" cy="0" r="6" stroke-width="0" transform="translate(238,292)"></circle><circle cx="0" cy="0" r="6" stroke-width="0" transform="translate(519,260)" visibility="visible" fill="Blue" stroke="Blue"></circle></g><g fill="gray" opacity="0.001" stroke="gray" class="dxc-trackers" clip-path="url(#DevExpress_12)"><path d="M 69 312 L 238 292 L 519 260" transform="translate(0,0)" stroke-width="12" fill="none"></path></g></g><g class="dxc-series"><g class="dxc-elements" stroke="Green" stroke-width="2" clip-path="url(#DevExpress_12)"><path d="M 69 324 L 238 322 L 519 319" transform="translate(0,0)" stroke-width="2"></path></g><g fill="Green" stroke="Green" stroke-width="0" r="6" visibility="visible" class="dxc-markers" opacity="1"><circle cx="0" cy="0" r="6" stroke-width="0" transform="translate(69,324)"></circle><circle cx="0" cy="0" r="6" stroke-width="0" transform="translate(238,322)"></circle><circle cx="0" cy="0" r="6" stroke-width="0" transform="translate(519,319)" visibility="visible" fill="Green" stroke="Green"></circle></g><g fill="gray" opacity="0.001" stroke="gray" class="dxc-trackers" clip-path="url(#DevExpress_12)"><path d="M 69 324 L 238 322 L 519 319" transform="translate(0,0)" stroke-width="12" fill="none"></path></g></g><g class="dxc-series"><g class="dxc-elements" stroke="Red" stroke-width="2" clip-path="url(#DevExpress_12)"><path d="M 69 281 L 238 217 L 519 106" transform="translate(0,0)" stroke-width="2"></path></g><g fill="Red" stroke="Red" stroke-width="0" r="6" visibility="visible" class="dxc-markers" opacity="1"><circle cx="0" cy="0" r="6" stroke-width="0" transform="translate(69,281)"></circle><circle cx="0" cy="0" r="6" stroke-width="0" transform="translate(238,217)"></circle><circle cx="0" cy="0" r="6" stroke-width="0" transform="translate(519,106)" visibility="visible" fill="Red" stroke="Red"></circle></g><g fill="gray" opacity="0.001" stroke="gray" class="dxc-trackers" clip-path="url(#DevExpress_12)"><path d="M 69 281 L 238 217 L 519 106" transform="translate(0,0)" stroke-width="12" fill="none"></path></g></g></g><g class="dxc-constant-lines-group"><g class="dxc-val-constant-lines"></g><g class="dxc-val-constant-lines" transform="translate(0,0)"></g><g class="dxc-val-constant-lines" transform="translate(0,0)"></g><g class="dxc-arg-constant-lines"></g><g class="dxc-arg-constant-lines" transform="translate(0,0)"></g><g class="dxc-arg-constant-lines" transform="translate(0,0)"></g></g><g class="dxc-scale-breaks"></g><g class="dxc-labels-group"><g class="dxc-labels" pointer-events="none" clip-path="url(#DevExpress_12)" transform="translate(0,0)"></g><g class="dxc-labels" pointer-events="none" clip-path="url(#DevExpress_12)" transform="translate(0,0)"><g visibility="visible"><g transform="translate(481,251)"><rect x="-8" y="-17" width="43" height="25" transform="translate(0,0)" fill="Blue" stroke-width="0" stroke="none" isEmpty="false"></rect><text style="white-space:pre;fill:#ffffff;font-family:'Segoe UI', 'Helvetica Neue', 'Trebuchet MS', Verdana, sans-serif;font-weight:400;font-size:12px;cursor:default;" x="0" y="0" transform="translate(0,0)">6198</text></g></g></g><g class="dxc-labels" pointer-events="none" clip-path="url(#DevExpress_12)" transform="translate(0,0)"><g visibility="visible"><g transform="translate(484,310)"><rect x="-8" y="-17" width="36" height="25" transform="translate(0,0)" fill="Green" stroke-width="0" stroke="none" isEmpty="false"></rect><text style="white-space:pre;fill:#ffffff;font-family:'Segoe UI', 'Helvetica Neue', 'Trebuchet MS', Verdana, sans-serif;font-weight:400;font-size:12px;cursor:default;" x="0" y="0" transform="translate(0,0)">558</text></g></g></g><g class="dxc-labels" pointer-events="none" clip-path="url(#DevExpress_12)" transform="translate(0,0)"><g visibility="visible"><g transform="translate(478,97)"><rect x="-8" y="-17" width="49" height="25" transform="translate(0,0)" fill="Red" stroke-width="0" stroke="none" isEmpty="false"></rect><text style="white-space:pre;fill:#ffffff;font-family:'Segoe UI', 'Helvetica Neue', 'Trebuchet MS', Verdana, sans-serif;font-weight:400;font-size:12px;cursor:default;" x="0" y="0" transform="translate(0,0)">20674</text></g></g></g></g><g class="dxc-crosshair-cursor"></g><g class="dxc-legend" clip-path="url(#DevExpress_8)" transform="translate(0,0)"><g transform="translate(539,61)"><g class="dxc-item" style="fill:#767676;font-family:'Segoe UI', 'Helvetica Neue', 'Trebuchet MS', Verdana, sans-serif;font-weight:400;font-size:12px;cursor:default;"><g><g class="dxl-marker" transform="translate(0,3)" visibility="visible"><rect x="0" y="0" width="12" height="12" transform="translate(0,0)" fill="Black" opacity="1"></rect></g><text style="white-space:pre;" x="0" y="0" transform="translate(19,13)" text-anchor="start">EF Core 5 (No Security)</text></g><g><g class="dxl-marker" transform="translate(0,28)" visibility="visible"><rect x="0" y="0" width="12" height="12" transform="translate(0,0)" fill="Blue" opacity="1"></rect></g><text style="white-space:pre;" x="0" y="0" transform="translate(19,38)" text-anchor="start">EF Core 5 (Security)</text></g><g><g class="dxl-marker" transform="translate(0,53)" visibility="visible"><rect x="0" y="0" width="12" height="12" transform="translate(0,0)" fill="Green" opacity="1"></rect></g><text style="white-space:pre;" x="0" y="0" transform="translate(20,63)" text-anchor="start">XPO (No Security)</text></g><g><g class="dxl-marker" transform="translate(0,78)" visibility="visible"><rect x="0" y="0" width="12" height="12" transform="translate(0,0)" fill="Red" opacity="1"></rect></g><text style="white-space:pre;" x="0" y="0" transform="translate(20,88)" text-anchor="start">XPO (Security)</text></g></g></g></g><g class="dxc-annotations"></g></svg>