<?xml version="1.0" encoding="UTF-8" standalone="yes" ?><svg xmlns:xlink="http://www.w3.org/1999/xlink" xmlns="http://www.w3.org/2000/svg" version="1.1" fill="none" stroke="none" stroke-width="0" class="dxc dxc-chart" style="line-height: normal; user-select: none; -webkit-tap-highlight-color: rgba(0, 0, 0, 0); display: block; overflow: hidden; background-color: rgb(255, 255, 255);" width="690" height="400" direction="ltr" pointer-events="none"><defs><filter id="DevExpress_7" x="-50%" y="-50%" width="200%" height="200%" transform="translate(0,0)"><feGaussianBlur in="SourceGraphic" result="gaussianBlurResult" stdDeviation="3"></feGaussianBlur><feOffset in="gaussianBlurResult" result="offsetResult" dx="2" dy="6"></feOffset><feFlood result="floodResult" flood-color="#d3d3d3" flood-opacity="0.8"></feFlood><feComposite in="floodResult" in2="offsetResult" operator="in" result="compositeResult"></feComposite><feComposite in="SourceGraphic" in2="compositeResult" operator="over"></feComposite></filter><clipPath id="DevExpress_8"><rect x="0" y="0" width="690" height="380" transform="translate(0,0)"></rect></clipPath><clipPath id="DevExpress_10"><rect x="-60" y="-10" width="635" height="58" transform="translate(0,0)"></rect></clipPath><clipPath id="DevExpress_11"><rect x="62" y="60" width="467" height="265" transform="translate(0,0)"></rect></clipPath><clipPath id="DevExpress_12"><rect x="62" y="60" width="467" height="265" transform="translate(0,0)"></rect></clipPath></defs><rect x="0" y="0" width="690" height="380" transform="translate(0,0)" fill="gray" opacity="0.0001"></rect><g class="dxc-background"></g><g class="dxc-title" clip-path="url(#DevExpress_10)" transform="translate(265,2)"><text style="white-space:pre;font-size:28px;font-family:'Segoe UI Light', 'Helvetica Neue Light', 'Segoe UI', 'Helvetica Neue', 'Trebuchet MS', Verdana, sans-serif;font-weight:200;fill:#232323;cursor:default;" x="0" y="30" transform="translate(0,0)" text-anchor="middle"></text></g><g class="dxc-strips-group"><g class="dxc-val-strips" clip-path="url(#DevExpress_11)"></g><g class="dxc-arg-strips" clip-path="url(#DevExpress_11)"></g></g><g class="dxc-grids-group"><g class="dxc-val-grid"><path d="M 62 325 L 529 325" transform="translate(0,-0.5)" stroke="#d3d3d3" stroke-width="1" opacity="1"></path><path d="M 62 272 L 529 272" transform="translate(0,0.5)" stroke="#d3d3d3" stroke-width="1" opacity="1"></path><path d="M 62 219 L 529 219" transform="translate(0,0.5)" stroke="#d3d3d3" stroke-width="1" opacity="1"></path><path d="M 62 166 L 529 166" transform="translate(0,0.5)" stroke="#d3d3d3" stroke-width="1" opacity="1"></path><path d="M 62 113 L 529 113" transform="translate(0,0.5)" stroke="#d3d3d3" stroke-width="1" opacity="1"></path><path d="M 62 60 L 529 60" transform="translate(0,0.5)" stroke="#d3d3d3" stroke-width="1" opacity="1"></path><path d="M 62 312 L 529 312" transform="translate(0,0.5)" stroke="#d3d3d3" stroke-width="1" stroke-opacity="0.3" opacity="1"></path><path d="M 62 299 L 529 299" transform="translate(0,0.5)" stroke="#d3d3d3" stroke-width="1" stroke-opacity="0.3" opacity="1"></path><path d="M 62 285 L 529 285" transform="translate(0,0.5)" stroke="#d3d3d3" stroke-width="1" stroke-opacity="0.3" opacity="1"></path><path d="M 62 259 L 529 259" transform="translate(0,0.5)" stroke="#d3d3d3" stroke-width="1" stroke-opacity="0.3" opacity="1"></path><path d="M 62 246 L 529 246" transform="translate(0,0.5)" stroke="#d3d3d3" stroke-width="1" stroke-opacity="0.3" opacity="1"></path><path d="M 62 232 L 529 232" transform="translate(0,0.5)" stroke="#d3d3d3" stroke-width="1" stroke-opacity="0.3" opacity="1"></path><path d="M 62 206 L 529 206" transform="translate(0,0.5)" stroke="#d3d3d3" stroke-width="1" stroke-opacity="0.3" opacity="1"></path><path d="M 62 193 L 529 193" transform="translate(0,0.5)" stroke="#d3d3d3" stroke-width="1" stroke-opacity="0.3" opacity="1"></path><path d="M 62 179 L 529 179" transform="translate(0,0.5)" stroke="#d3d3d3" stroke-width="1" stroke-opacity="0.3" opacity="1"></path><path d="M 62 153 L 529 153" transform="translate(0,0.5)" stroke="#d3d3d3" stroke-width="1" stroke-opacity="0.3" opacity="1"></path><path d="M 62 140 L 529 140" transform="translate(0,0.5)" stroke="#d3d3d3" stroke-width="1" stroke-opacity="0.3" opacity="1"></path><path d="M 62 126 L 529 126" transform="translate(0,0.5)" stroke="#d3d3d3" stroke-width="1" stroke-opacity="0.3" opacity="1"></path><path d="M 62 100 L 529 100" transform="translate(0,0.5)" stroke="#d3d3d3" stroke-width="1" stroke-opacity="0.3" opacity="1"></path><path d="M 62 87 L 529 87" transform="translate(0,0.5)" stroke="#d3d3d3" stroke-width="1" stroke-opacity="0.3" opacity="1"></path><path d="M 62 73 L 529 73" transform="translate(0,0.5)" stroke="#d3d3d3" stroke-width="1" stroke-opacity="0.3" opacity="1"></path></g><g class="dxc-arg-grid"><path d="M 63 60 L 63 325" transform="translate(0.5,0)" stroke="#d3d3d3" stroke-width="1" opacity="1"></path><path d="M 154 60 L 154 325" transform="translate(0.5,0)" stroke="#d3d3d3" stroke-width="1" opacity="1"></path><path d="M 245 60 L 245 325" transform="translate(0.5,0)" stroke="#d3d3d3" stroke-width="1" opacity="1"></path><path d="M 337 60 L 337 325" transform="translate(0.5,0)" stroke="#d3d3d3" stroke-width="1" opacity="1"></path><path d="M 428 60 L 428 325" transform="translate(0.5,0)" stroke="#d3d3d3" stroke-width="1" opacity="1"></path><path d="M 519 60 L 519 325" transform="translate(0.5,0)" stroke="#d3d3d3" stroke-width="1" opacity="1"></path><path d="M 81 60 L 81 325" transform="translate(0.5,0)" stroke="#d3d3d3" stroke-width="1" stroke-opacity="0.3" opacity="1"></path><path d="M 99 60 L 99 325" transform="translate(0.5,0)" stroke="#d3d3d3" stroke-width="1" stroke-opacity="0.3" opacity="1"></path><path d="M 118 60 L 118 325" transform="translate(0.5,0)" stroke="#d3d3d3" stroke-width="1" stroke-opacity="0.3" opacity="1"></path><path d="M 136 60 L 136 325" transform="translate(0.5,0)" stroke="#d3d3d3" stroke-width="1" stroke-opacity="0.3" opacity="1"></path><path d="M 172 60 L 172 325" transform="translate(0.5,0)" stroke="#d3d3d3" stroke-width="1" stroke-opacity="0.3" opacity="1"></path><path d="M 191 60 L 191 325" transform="translate(0.5,0)" stroke="#d3d3d3" stroke-width="1" stroke-opacity="0.3" opacity="1"></path><path d="M 209 60 L 209 325" transform="translate(0.5,0)" stroke="#d3d3d3" stroke-width="1" stroke-opacity="0.3" opacity="1"></path><path d="M 227 60 L 227 325" transform="translate(0.5,0)" stroke="#d3d3d3" stroke-width="1" stroke-opacity="0.3" opacity="1"></path><path d="M 264 60 L 264 325" transform="translate(0.5,0)" stroke="#d3d3d3" stroke-width="1" stroke-opacity="0.3" opacity="1"></path><path d="M 282 60 L 282 325" transform="translate(0.5,0)" stroke="#d3d3d3" stroke-width="1" stroke-opacity="0.3" opacity="1"></path><path d="M 300 60 L 300 325" transform="translate(0.5,0)" stroke="#d3d3d3" stroke-width="1" stroke-opacity="0.3" opacity="1"></path><path d="M 318 60 L 318 325" transform="translate(0.5,0)" stroke="#d3d3d3" stroke-width="1" stroke-opacity="0.3" opacity="1"></path><path d="M 355 60 L 355 325" transform="translate(0.5,0)" stroke="#d3d3d3" stroke-width="1" stroke-opacity="0.3" opacity="1"></path><path d="M 373 60 L 373 325" transform="translate(0.5,0)" stroke="#d3d3d3" stroke-width="1" stroke-opacity="0.3" opacity="1"></path><path d="M 391 60 L 391 325" transform="translate(0.5,0)" stroke="#d3d3d3" stroke-width="1" stroke-opacity="0.3" opacity="1"></path><path d="M 410 60 L 410 325" transform="translate(0.5,0)" stroke="#d3d3d3" stroke-width="1" stroke-opacity="0.3" opacity="1"></path><path d="M 446 60 L 446 325" transform="translate(0.5,0)" stroke="#d3d3d3" stroke-width="1" stroke-opacity="0.3" opacity="1"></path><path d="M 464 60 L 464 325" transform="translate(0.5,0)" stroke="#d3d3d3" stroke-width="1" stroke-opacity="0.3" opacity="1"></path><path d="M 483 60 L 483 325" transform="translate(0.5,0)" stroke="#d3d3d3" stroke-width="1" stroke-opacity="0.3" opacity="1"></path><path d="M 501 60 L 501 325" transform="translate(0.5,0)" stroke="#d3d3d3" stroke-width="1" stroke-opacity="0.3" opacity="1"></path></g></g><g class="dxc-border"></g><g class="dxc-axes-group"><g class="dxc-val-axis" transform="translate(0,0)" clip-path="url(#DevExpress_8)"><g class="dxc-val-elements"><text style="white-space:pre;fill:#767676;font-family:'Segoe UI', 'Helvetica Neue', 'Trebuchet MS', Verdana, sans-serif;font-weight:400;font-size:12px;cursor:default;" x="62" y="325" transform="translate(-14,4.5)" text-anchor="middle">0</text><text style="white-space:pre;fill:#767676;font-family:'Segoe UI', 'Helvetica Neue', 'Trebuchet MS', Verdana, sans-serif;font-weight:400;font-size:12px;cursor:default;" x="62" y="272" transform="translate(-20,4.5)" text-anchor="middle">500</text><text style="white-space:pre;fill:#767676;font-family:'Segoe UI', 'Helvetica Neue', 'Trebuchet MS', Verdana, sans-serif;font-weight:400;font-size:12px;cursor:default;" x="62" y="219" transform="translate(-22,4.5)" text-anchor="middle">1.0K</text><text style="white-space:pre;fill:#767676;font-family:'Segoe UI', 'Helvetica Neue', 'Trebuchet MS', Verdana, sans-serif;font-weight:400;font-size:12px;cursor:default;" x="62" y="166" transform="translate(-22,4.5)" text-anchor="middle">1.5K</text><text style="white-space:pre;fill:#767676;font-family:'Segoe UI', 'Helvetica Neue', 'Trebuchet MS', Verdana, sans-serif;font-weight:400;font-size:12px;cursor:default;" x="62" y="113" transform="translate(-22,4.5)" text-anchor="middle">2.0K</text><text style="white-space:pre;fill:#767676;font-family:'Segoe UI', 'Helvetica Neue', 'Trebuchet MS', Verdana, sans-serif;font-weight:400;font-size:12px;cursor:default;" x="62" y="60" transform="translate(-22,4.5)" text-anchor="middle">2.5K</text></g><g class="dxc-val-line"><path d="M 62 325 L 62 60" transform="translate(0.5,0)" stroke-width="1" stroke="#767676"></path><path d="M 56 325 L 63 325" transform="translate(0,-0.5)" stroke="#767676" stroke-width="1" opacity="1"></path><path d="M 56 272 L 63 272" transform="translate(0,0.5)" stroke="#767676" stroke-width="1" opacity="1"></path><path d="M 56 219 L 63 219" transform="translate(0,0.5)" stroke="#767676" stroke-width="1" opacity="1"></path><path d="M 56 166 L 63 166" transform="translate(0,0.5)" stroke="#767676" stroke-width="1" opacity="1"></path><path d="M 56 113 L 63 113" transform="translate(0,0.5)" stroke="#767676" stroke-width="1" opacity="1"></path><path d="M 56 60 L 63 60" transform="translate(0,0.5)" stroke="#767676" stroke-width="1" opacity="1"></path></g><g class="dxc-val-title"><text style="white-space:pre;fill:#767676;font-size:16px;font-family:'Segoe UI', 'Helvetica Neue', 'Trebuchet MS', Verdana, sans-serif;font-weight:400;cursor:default;" x="62" y="192.5" transform="translate(-44,0) rotate(270,62,192.5)" text-anchor="middle">Time, milliseconds</text></g></g><g class="dxc-arg-axis" transform="translate(0,0)" clip-path="url(#DevExpress_8)"><g class="dxc-arg-elements"><text style="white-space:pre;fill:#767676;font-family:'Segoe UI', 'Helvetica Neue', 'Trebuchet MS', Verdana, sans-serif;font-weight:400;font-size:12px;cursor:default;" x="63" y="325" transform="translate(0,23)" text-anchor="middle">0</text><text style="white-space:pre;fill:#767676;font-family:'Segoe UI', 'Helvetica Neue', 'Trebuchet MS', Verdana, sans-serif;font-weight:400;font-size:12px;cursor:default;" x="154" y="325" transform="translate(0,23)" text-anchor="middle">100</text><text style="white-space:pre;fill:#767676;font-family:'Segoe UI', 'Helvetica Neue', 'Trebuchet MS', Verdana, sans-serif;font-weight:400;font-size:12px;cursor:default;" x="245" y="325" transform="translate(0,23)" text-anchor="middle">200</text><text style="white-space:pre;fill:#767676;font-family:'Segoe UI', 'Helvetica Neue', 'Trebuchet MS', Verdana, sans-serif;font-weight:400;font-size:12px;cursor:default;" x="337" y="325" transform="translate(0,23)" text-anchor="middle">300</text><text style="white-space:pre;fill:#767676;font-family:'Segoe UI', 'Helvetica Neue', 'Trebuchet MS', Verdana, sans-serif;font-weight:400;font-size:12px;cursor:default;" x="428" y="325" transform="translate(0.5,23)" text-anchor="middle">400</text><text style="white-space:pre;fill:#767676;font-family:'Segoe UI', 'Helvetica Neue', 'Trebuchet MS', Verdana, sans-serif;font-weight:400;font-size:12px;cursor:default;" x="519" y="325" transform="translate(0,23)" text-anchor="middle">500</text></g><g class="dxc-arg-line"><path d="M 62 325 L 529 325" transform="translate(0,-0.5)" stroke-width="1" stroke="#767676"></path><path d="M 63 324 L 63 331" transform="translate(0.5,0)" stroke="#767676" stroke-width="1" opacity="1"></path><path d="M 154 324 L 154 331" transform="translate(0.5,0)" stroke="#767676" stroke-width="1" opacity="1"></path><path d="M 245 324 L 245 331" transform="translate(0.5,0)" stroke="#767676" stroke-width="1" opacity="1"></path><path d="M 337 324 L 337 331" transform="translate(0.5,0)" stroke="#767676" stroke-width="1" opacity="1"></path><path d="M 428 324 L 428 331" transform="translate(0.5,0)" stroke="#767676" stroke-width="1" opacity="1"></path><path d="M 519 324 L 519 331" transform="translate(0.5,0)" stroke="#767676" stroke-width="1" opacity="1"></path></g><g class="dxc-arg-title"><text style="white-space:pre;fill:#767676;font-size:16px;font-family:'Segoe UI', 'Helvetica Neue', 'Trebuchet MS', Verdana, sans-serif;font-weight:400;cursor:default;" x="295.5" y="325" transform="translate(0,51)" text-anchor="middle">Items count</text></g></g></g><g class="dxc-strips-labels-group"><g class="dxc-val-axis-labels"></g><g class="dxc-arg-axis-labels"></g></g><g class="dxc-constant-lines-group"><g class="dxc-val-constant-lines"></g><g class="dxc-val-constant-lines" transform="translate(0,0)"></g><g class="dxc-val-constant-lines" transform="translate(0,0)"></g><g class="dxc-arg-constant-lines"></g><g class="dxc-arg-constant-lines" transform="translate(0,0)"></g><g class="dxc-arg-constant-lines" transform="translate(0,0)"></g></g><g class="dxc-series-group"><g class="dxc-series"><g class="dxc-elements" stroke="Black" stroke-width="2" clip-path="url(#DevExpress_12)"><path d="M 72 325 L 81 325 L 108 325 L 154 325 L 291 323 L 519 323" transform="translate(0,0)" stroke-width="2"></path></g><g fill="Black" stroke="Black" stroke-width="0" r="6" visibility="visible" class="dxc-markers" opacity="1"><circle cx="0" cy="0" r="6" stroke-width="0" transform="translate(72,325)"></circle><circle cx="0" cy="0" r="6" stroke-width="0" transform="translate(81,325)"></circle><circle cx="0" cy="0" r="6" stroke-width="0" transform="translate(108,325)"></circle><circle cx="0" cy="0" r="6" stroke-width="0" transform="translate(154,325)"></circle><circle cx="0" cy="0" r="6" stroke-width="0" transform="translate(291,323)"></circle><circle cx="0" cy="0" r="6" stroke-width="0" transform="translate(519,323)"></circle></g><g fill="gray" opacity="0.001" stroke="gray" class="dxc-trackers" clip-path="url(#DevExpress_12)"><path d="M 72 325 L 81 325 L 108 325 L 154 325 L 291 323 L 519 323" transform="translate(0,0)" stroke-width="12" fill="none"></path></g></g><g class="dxc-series"><g class="dxc-elements" stroke="Blue" stroke-width="2" clip-path="url(#DevExpress_12)"><path d="M 72 322 L 81 321 L 108 317 L 154 311 L 291 291 L 519 258" transform="translate(0,0)" stroke-width="2"></path></g><g fill="Blue" stroke="Blue" stroke-width="0" r="6" visibility="visible" class="dxc-markers" opacity="1"><circle cx="0" cy="0" r="6" stroke-width="0" transform="translate(72,322)"></circle><circle cx="0" cy="0" r="6" stroke-width="0" transform="translate(81,321)"></circle><circle cx="0" cy="0" r="6" stroke-width="0" transform="translate(108,317)"></circle><circle cx="0" cy="0" r="6" stroke-width="0" transform="translate(154,311)"></circle><circle cx="0" cy="0" r="6" stroke-width="0" transform="translate(291,291)"></circle><circle cx="0" cy="0" r="6" stroke-width="0" transform="translate(519,258)" visibility="visible" fill="Blue" stroke="Blue"></circle></g><g fill="gray" opacity="0.001" stroke="gray" class="dxc-trackers" clip-path="url(#DevExpress_12)"><path d="M 72 322 L 81 321 L 108 317 L 154 311 L 291 291 L 519 258" transform="translate(0,0)" stroke-width="12" fill="none"></path></g></g><g class="dxc-series"><g class="dxc-elements" stroke="Green" stroke-width="2" clip-path="url(#DevExpress_12)"><path d="M 72 325 L 81 324 L 108 324 L 154 323 L 291 320 L 519 317" transform="translate(0,0)" stroke-width="2"></path></g><g fill="Green" stroke="Green" stroke-width="0" r="6" visibility="visible" class="dxc-markers" opacity="1"><circle cx="0" cy="0" r="6" stroke-width="0" transform="translate(72,325)"></circle><circle cx="0" cy="0" r="6" stroke-width="0" transform="translate(81,324)"></circle><circle cx="0" cy="0" r="6" stroke-width="0" transform="translate(108,324)"></circle><circle cx="0" cy="0" r="6" stroke-width="0" transform="translate(154,323)"></circle><circle cx="0" cy="0" r="6" stroke-width="0" transform="translate(291,320)"></circle><circle cx="0" cy="0" r="6" stroke-width="0" transform="translate(519,317)" visibility="visible" fill="Green" stroke="Green"></circle></g><g fill="gray" opacity="0.001" stroke="gray" class="dxc-trackers" clip-path="url(#DevExpress_12)"><path d="M 72 325 L 81 324 L 108 324 L 154 323 L 291 320 L 519 317" transform="translate(0,0)" stroke-width="12" fill="none"></path></g></g><g class="dxc-series"><g class="dxc-elements" stroke="Red" stroke-width="2" clip-path="url(#DevExpress_12)"><path d="M 72 321 L 81 316 L 108 304 L 154 281 L 291 212 L 519 104" transform="translate(0,0)" stroke-width="2"></path></g><g fill="Red" stroke="Red" stroke-width="0" r="6" visibility="visible" class="dxc-markers" opacity="1"><circle cx="0" cy="0" r="6" stroke-width="0" transform="translate(72,321)"></circle><circle cx="0" cy="0" r="6" stroke-width="0" transform="translate(81,316)"></circle><circle cx="0" cy="0" r="6" stroke-width="0" transform="translate(108,304)"></circle><circle cx="0" cy="0" r="6" stroke-width="0" transform="translate(154,281)"></circle><circle cx="0" cy="0" r="6" stroke-width="0" transform="translate(291,212)"></circle><circle cx="0" cy="0" r="6" stroke-width="0" transform="translate(519,104)" visibility="visible" fill="Red" stroke="Red"></circle></g><g fill="gray" opacity="0.001" stroke="gray" class="dxc-trackers" clip-path="url(#DevExpress_12)"><path d="M 72 321 L 81 316 L 108 304 L 154 281 L 291 212 L 519 104" transform="translate(0,0)" stroke-width="12" fill="none"></path></g></g></g><g class="dxc-constant-lines-group"><g class="dxc-val-constant-lines"></g><g class="dxc-val-constant-lines" transform="translate(0,0)"></g><g class="dxc-val-constant-lines" transform="translate(0,0)"></g><g class="dxc-arg-constant-lines"></g><g class="dxc-arg-constant-lines" transform="translate(0,0)"></g><g class="dxc-arg-constant-lines" transform="translate(0,0)"></g></g><g class="dxc-scale-breaks"></g><g class="dxc-labels-group"><g class="dxc-labels" pointer-events="none" clip-path="url(#DevExpress_12)" transform="translate(0,0)"></g><g class="dxc-labels" pointer-events="none" clip-path="url(#DevExpress_12)" transform="translate(0,0)"><g visibility="visible"><g transform="translate(484,249)"><rect x="-8" y="-17" width="36" height="25" transform="translate(0,0)" fill="Blue" stroke-width="0" stroke="none" isEmpty="false"></rect><text style="white-space:pre;fill:#ffffff;font-family:'Segoe UI', 'Helvetica Neue', 'Trebuchet MS', Verdana, sans-serif;font-weight:400;font-size:12px;cursor:default;" x="0" y="0" transform="translate(0,0)">634</text></g></g></g><g class="dxc-labels" pointer-events="none" clip-path="url(#DevExpress_12)" transform="translate(0,0)"><g visibility="visible"><g transform="translate(487,308)"><rect x="-8" y="-17" width="30" height="25" transform="translate(0,0)" fill="Green" stroke-width="0" stroke="none" isEmpty="false"></rect><text style="white-space:pre;fill:#ffffff;font-family:'Segoe UI', 'Helvetica Neue', 'Trebuchet MS', Verdana, sans-serif;font-weight:400;font-size:12px;cursor:default;" x="0" y="0" transform="translate(0,0)">79</text></g></g></g><g class="dxc-labels" pointer-events="none" clip-path="url(#DevExpress_12)" transform="translate(0,0)"><g visibility="visible"><g transform="translate(481,95)"><rect x="-8" y="-17" width="43" height="25" transform="translate(0,0)" fill="Red" stroke-width="0" stroke="none" isEmpty="false"></rect><text style="white-space:pre;fill:#ffffff;font-family:'Segoe UI', 'Helvetica Neue', 'Trebuchet MS', Verdana, sans-serif;font-weight:400;font-size:12px;cursor:default;" x="0" y="0" transform="translate(0,0)">2084</text></g></g></g></g><g class="dxc-crosshair-cursor"></g><g class="dxc-legend" clip-path="url(#DevExpress_8)" transform="translate(0,0)"><g transform="translate(539,61)"><g class="dxc-item" style="fill:#767676;font-family:'Segoe UI', 'Helvetica Neue', 'Trebuchet MS', Verdana, sans-serif;font-weight:400;font-size:12px;cursor:default;"><g><g class="dxl-marker" transform="translate(0,3)" visibility="visible"><rect x="0" y="0" width="12" height="12" transform="translate(0,0)" fill="Black" opacity="1"></rect></g><text style="white-space:pre;" x="0" y="0" transform="translate(19,13)" text-anchor="start">EF Core 5 (No Security)</text></g><g><g class="dxl-marker" transform="translate(0,28)" visibility="visible"><rect x="0" y="0" width="12" height="12" transform="translate(0,0)" fill="Blue" opacity="1"></rect></g><text style="white-space:pre;" x="0" y="0" transform="translate(19,38)" text-anchor="start">EF Core 5 (Security)</text></g><g><g class="dxl-marker" transform="translate(0,53)" visibility="visible"><rect x="0" y="0" width="12" height="12" transform="translate(0,0)" fill="Green" opacity="1"></rect></g><text style="white-space:pre;" x="0" y="0" transform="translate(20,63)" text-anchor="start">XPO (No Security)</text></g><g><g class="dxl-marker" transform="translate(0,78)" visibility="visible"><rect x="0" y="0" width="12" height="12" transform="translate(0,0)" fill="Red" opacity="1"></rect></g><text style="white-space:pre;" x="0" y="0" transform="translate(20,88)" text-anchor="start">XPO (Security)</text></g></g></g></g><g class="dxc-annotations"></g></svg>